<?xml version="1.0" encoding="UTF-8"?>
<!-- Created with Inkscape (http://www.inkscape.org/) -->
<svg inkscape:export-filename="JS_Solutions.svg" inkscape:export-xdpi="96" inkscape:export-ydpi="96" inkscape:version="1.4.2 (f4327f4, 2025-05-13)" sodipodi:docname="JS_Solutions.svg" version="1.1" viewBox="0 0 2048 2080" xmlns="http://www.w3.org/2000/svg" xmlns:inkscape="http://www.inkscape.org/namespaces/inkscape" xmlns:sodipodi="http://sodipodi.sourceforge.net/DTD/sodipodi-0.dtd">
 <sodipodi:namedview bordercolor="#000000" borderopacity="0.25" inkscape:current-layer="g3" inkscape:cx="-1825" inkscape:cy="2493.75" inkscape:deskcolor="#d1d1d1" inkscape:pagecheckerboard="0" inkscape:pageopacity="0.0" inkscape:showpageshadow="2" inkscape:window-height="1009" inkscape:window-maximized="1" inkscape:window-width="1920" inkscape:window-x="-8" inkscape:window-y="-8" inkscape:zoom="0.08" pagecolor="#ffffff"/>
 <g inkscape:groupmode="layer" inkscape:label="Image">
  <g transform="translate(2095.9 -160.38)">
   <g transform="translate(499.56 -4619.8)">
    <g transform="translate(2177.7 833.53)">
     <path d="m-3618.6 5408.3v134l11.75-0.016c6.4625-0.01 12.201-0.3459 12.752-0.75 1.3824-1.0126 1.3807-131.23 0-131.25-0.55-0.01-0.325-0.4511 0.5-0.9843 1.0103-0.6529-2.8257-0.9744-11.75-0.9844z" style="fill:#f3f3f2"/>
     <path d="m-3753.6 5408.3v21h43.842l0.4023 7.75c0.2221 4.2625 0.3711 29.688 0.3301 56.5l-0.074 48.75h12.25c12.033 0 12.25-0.04 12.262-2.25 0.01-1.2375 0.1194-26.55 0.25-56.25l0.2383-54 22.75-0.2676 22.75-0.2696v-20.963h-57.5z" style="fill:#f3f3f2"/>
     <path d="m-3797.6 5408.3-0.041 43.25c-0.032 33.206-0.3602 44.527-1.414 48.75-0.6606 2.6468-1.2605 4.5273-1.4454 4.5878h-0.01c-0.012-0.013-0.023-0.042-0.027-0.082-0.068-0.55-0.7317 0.3969-1.4746 2.1035-1.2269 2.8183-4.4893 6.5066-9.1387 10.332-7.1483 5.8813-30.358 6.5201-36.988 1.0176-0.794-0.6586-1.4433-0.9185-1.4433-0.5762 0 0.7377-2.5817-1.443-7.9649-6.7305-2.1576-2.1192-4.2302-5.2692-4.6055-7-0.3754-1.7308-1.0492-3.3823-1.498-3.6699s-0.9554-21.099-1.125-46.248l-0.3066-45.727h-25.625l0.3125 47.537c0.2167 33.03 0.6451 47.755 1.4062 48.25 0.6024 0.3921 1.3744 2.4773 1.7149 4.6328 0.3406 2.1555 0.9963 4.1805 1.457 4.5 0.4606 0.3195 1.6183 2.2579 2.5722 4.3086 0.9541 2.0507 3.0675 5.1882 4.6973 6.9727 1.6298 1.7844 2.9649 3.5941 2.9649 4.0215s0.4214 0.7773 0.9375 0.7773c0.516 0 2.4161 1.35 4.2226 3 1.8066 1.65 3.86 3 4.5625 3 0.7024 0 1.2774 0.45 1.2774 1s1.125 1 2.5 1 2.5 0.4136 2.5 0.9199 1.4625 1.2358 3.25 1.6192 3.7 0.9684 4.25 1.3008c1.3572 0.8202 2.7216 1.0558 12 2.0722 19.312 2.1157 37.805-2.2055 48.219-11.266 1.8039-1.5695 3.2832-2.4695 3.2832-2 0 0.4694 0.8965-0.609 1.9863-2.3965 1.0899-1.7875 2.3902-3.25 2.8887-3.25s1.1881-1.125 1.5332-2.5 1.0678-2.5 1.6074-2.5c0.5395 0 0.9825-0.675 0.9825-1.5s0.3858-1.5 0.8593-1.5c1.2023 0 5.126-12.821 5.211-17.029 0.058-2.85 0.2242-3.1125 0.9297-1.4707 0.4972 1.157 0.8886-17.285 0.9296-43.75l0.068-45.75h-13z" style="fill:#f3f3f2"/>
     <path d="m-4003.5 5408.3-0.1484 52.25c-0.082 28.738-0.1978 58.1-0.2598 65.25s0.2016 13.788 0.584 14.75c0.6484 1.632 3.8662 1.75 47.726 1.75h47.031v-22h-70v-112h-12.467z" style="fill:#f3f3f2"/>
     <path d="m-3292.9 5408.1c-7.8102 0.063-6.6658 4.1823-6.416 46.271 0.2664 44.908 0.2427 45.139-4.2246 39.219-1.5785-2.0918-3.4614-4.4849-4.1836-5.3164s-3.1125-3.7565-5.3125-6.5-4.5625-5.3473-5.25-5.7871c-0.6875-0.4399-1.25-1.2274-1.25-1.75 0-0.5227-0.7875-1.7938-1.75-2.8242-0.9625-1.0303-2.7302-3.1678-3.9277-4.75-1.1974-1.5821-2.9974-3.7765-4-4.877-1.0025-1.1004-2.9987-3.5754-4.4356-5.5-1.4369-1.9245-3.9119-4.9181-5.5-6.6523-4.3759-4.7783-8.9322-10.298-13.115-15.887-2.0746-2.7719-4.784-6.0344-6.0215-7.25s-2.25-2.5665-2.25-3.0019-1.575-2.4612-3.5-4.502c-1.925-2.0409-3.5-4.0851-3.5-4.5429 0-3.9011-6.0534-6.1641-16.492-6.1641h-10.508v134h10.918c14.955 0 13.61 1.8579 13.406-18.51-0.1285-12.823 0.1383-17.495 1-17.506 0.7051-0.01 0.5949-0.3819-0.2773-0.9336-1.2046-0.762-1.2389-1.3234-0.1954-3.2735 0.9487-1.7722 0.9903-3.0643 0.1661-5.2324-0.8429-2.2167-0.7991-3.0656 0.1933-3.6953 0.7089-0.4497 0.8255-0.824 0.2578-0.834-1.5952-0.024-1.8156-19.173-0.2324-20.197 0.8298-0.5368 0.9131-1.0758 0.2422-1.5684-1.4282-1.0485-1.9801-7.6764-0.5664-6.8027 0.7351 0.4544 1.0937-1.209 1.0937-5.1367v-5.8106l3.4942 3.8066c1.9223 2.0931 3.4961 4.2306 3.4961 4.75s0.3375 0.9512 0.75 0.9512 1.875 1.6693 3.25 3.7012c1.375 2.0318 3.85 5.1131 5.5 6.8476 1.65 1.7344 4.125 4.6535 5.5 6.4883s3.5125 4.3564 4.75 5.6016 2.25 2.569 2.25 2.9434c0 0.3743 1.125 1.7237 2.5 2.998s2.5037 2.6764 2.5137 3.1152 1.852 2.8219 4.0996 5.2969 5.414 6.4125 7.0351 8.75 3.2786 4.25 3.6836 4.25 1.4712 1.2375 2.3692 2.75c0.8979 1.5125 3.4633 4.775 5.7011 7.25 2.2379 2.475 4.0721 5.0625 4.0821 5.75s0.6906 1.25 1.5156 1.25 1.5 0.4464 1.5 0.9922c0 0.9403 1.1802 2.4579 7 8.998 2.4567 2.7608 2.6792 2.8072 12.891 2.6602l10.391-0.1504 0.793-133.5h-12.471c-2.8772 0-5.1561-0.1997-6.959-0.1855z" style="fill:#f3f3f2"/>
     <path d="m-3185.6 5407.6c-12.934-0.6195-28.299 0.3479-27.445 1.7286 0.3093 0.5005-1.0648 0.9101-3.0547 0.9101-2.1574 0-3.3685 0.4038-3 1 0.3399 0.55-0.1569 1-1.1035 1-3.7945 0-18.396 10.538-18.396 13.275 0 0.4777-0.6641 1.5313-1.4746 2.3418-1.5681 1.5681-4.0245 9.0426-3.6582 11.133 0.1204 0.6875-0.2795 1.25-0.8907 1.25-1.1963 0-1.2395 13.68-0.049 15.5 0.3598 0.55 1.2352 2.7093 1.9453 4.7988 1.1733 3.4524 3.6689 6.4268 10.291 12.258 1.2838 1.1306 4.8109 3.0664 7.8359 4.3028 3.025 1.2365 6.4 2.64 7.5 3.1191s3.125 1.0969 4.5 1.3731c7.6783 1.5425 16.623 3.9822 17.449 4.7578 0.5225 0.4906 2.1849 0.8906 3.6934 0.8906 3.0805 0 17.174 4.9296 17.689 6.1875 0.1834 0.447 0.7234 0.8125 1.1992 0.8125 1.5656 0 5.9688 4.6957 5.9688 6.3652 0 0.8994 0.45 1.6348 1 1.6348 2.4452 0 0.3934 10.624-2.668 13.816-6.2019 6.4676-30.35 8.8379-46.092 4.5235-3.9921-1.0942-6.9966-2.2494-6.6777-2.5684 0.319-0.3189-0.9154-0.8934-2.7422-1.2754-3.7403-0.782-14.771-7.4597-14.861-8.9961 0-0.034-0.01-0.057-0.021-0.07 0-1e-4 -0.01 0-0.01 0h-0.01-0.01c-0.2445-0.037-1.4912 2.0914-2.9551 5.082-1.4767 3.0164-2.7391 5.1568-2.9785 5.0821h-0.01c0-8e-4 0 0-0.01 0-0.013-0.014-0.023-0.04-0.025-0.074-0.1259-1.5765-2.9147 7.7874-2.9317 9.8438-0.01 1.014 0.8864 2.0795 1.9864 2.3672s2 0.9203 2 1.4062c0 0.4858 0.9 0.8828 2 0.8828s2 0.3402 2 0.7559c0 0.7685 3.672 2.5324 7.75 3.7226 1.2375 0.3611 2.25 1.0006 2.25 1.4219 0 0.4212 0.5625 0.7913 1.25 0.8203s5.3 0.971 10.25 2.0938c4.95 1.1227 10.35 2.2617 12 2.5312 10.468 1.7095 33.042-0.8717 41.754-4.7754 8.5521-3.8318 17.746-10.811 17.746-13.471 0-0.605 0.3858-1.0996 0.8593-1.0996 2.2398 0 7.1407-13.612 7.1407-19.836 0-9.5815-7.0768-24.164-11.727-24.164-0.6087 0-1.258-0.4014-1.4414-0.8925-0.4753-1.2733-10.635-7.1075-12.377-7.1075-0.8008 0-1.455-0.4212-1.455-0.9375s-2.0209-1.243-4.4903-1.6132c-2.4694-0.3703-4.2713-1.0263-4.0039-1.459 0.2675-0.4328-2.6596-1.104-6.5058-1.4903-3.8462-0.3862-6.7799-1.048-6.5176-1.4726 0.2624-0.4246-2.2127-1.0771-5.502-1.4492-3.2893-0.3722-5.9804-1.1043-5.9804-1.627s-1.35-0.9512-3-0.9512-3-0.3998-3-0.8886-1.575-1.1838-3.5-1.545c-1.925-0.3611-3.5-0.9899-3.5-1.3964s-1.3951-1.5616-3.0996-2.5684c-4.4846-2.6491-8.4479-14.602-4.8418-14.602 0.5826 0 0.8136-0.3975 0.5136-0.8828-1.445-2.3381 6.9536-9.1172 11.295-9.1172 1.0815 0 2.1277-0.4868 2.3261-1.082 0.7029-2.1086 32.037-0.9684 33.387 1.2148 0.2952 0.4778 1.7486 0.8711 3.2286 0.8711 1.4801 0 5.7289 1.5324 9.4414 3.4024 3.8727 1.9507 6.75 2.9024 6.75 2.2324 0-0.6423 0.8294-2.7354 1.8437-4.6523 1.0143-1.9168 2.133-4.9736 2.4863-6.793s1.3742-4.0403 2.2676-4.9336c1.9932-1.9932 0.2427-3.6278-5.8301-5.4473-2.0731-0.6211-3.7675-1.4569-3.7675-1.8574s-2.025-1.0311-4.5-1.4023c-2.475-0.3711-4.5-1.0528-4.5-1.5137 0-1.1149-7.0009-2.0072-21-2.6777z" style="fill:#f3f3f2"/>
     <path d="m-3482.1 5407.5c-12.723-0.4266-33.767 1.3253-38.691 3.8848-0.9551 0.4964-2.6426 0.9023-3.75 0.9023-1.1075 0-2.0137 0.3387-2.0137 0.752 0 0.4134-2.7769 2.0618-6.1699 3.664-6.8859 3.2515-19.526 15.016-21.902 20.385-0.7791 1.76-1.7238 3.1992-2.0996 3.1992-1.184 0-5.8281 10.756-5.8281 13.498 0 1.4416-0.4045 2.3716-0.8985 2.0664-2.4634-1.5225-3.8272 20.07-2.0175 31.936 0.5033 3.3 0.99 6.5625 1.082 7.25s0.4878 1.25 0.8809 1.25c0.393 0 1.2301 2.0442 1.8593 4.543 0.6292 2.4989 1.4883 4.331 1.9102 4.0703 0.4219-0.2608 0.8369 0.4449 0.9219 1.5683 0.085 1.1235 0.8524 2.8155 1.707 3.7598 0.8545 0.9442 1.5547 2.359 1.5547 3.1445s1.4625 2.8812 3.25 4.6563 3.9599 4.0211 4.8281 4.9922c3.9896 4.4623 10.414 9.0385 16.172 11.52 1.5125 0.6517 2.75 1.5374 2.75 1.9668s1.0125 0.7955 2.25 0.8125c1.2375 0.018 3.1218 0.6925 4.1894 1.5 1.0677 0.8076 2.891 1.4668 4.0508 1.4668 1.1599 0 2.5628 0.4533 3.1172 1.0078 0.5544 0.5544 4.3561 1.3969 8.4492 1.8711 13.418 1.5547 28.252 0.6819 33.18-1.9512 0.9551-0.5103 2.6094-0.9277 3.6778-0.9277 1.068 0 2.5368-0.5653 3.2636-1.2578s3.5601-1.843 6.2969-2.5566c2.7367-0.7136 5.2117-1.6346 5.5-2.045 0.2882-0.4104 2.119-1.7123 4.0664-2.8945 3.0586-1.8568 6.78-5.3556 14.209-13.359 0.9625-1.0369 1.75-2.3132 1.75-2.8359 0-0.5226 0.5625-1.3101 1.25-1.75 1.4711-0.9411 3.75-4.8045 3.75-6.3574 0-0.5968 0.675-1.761 1.5-2.586s1.5-2.5028 1.5-3.7285 0.3881-2.6552 0.8633-3.1777c3.3144-3.6441 5.0382-24.421 2.7617-33.281-0.8946-3.4819-1.625-7.6444-1.625-9.25s-0.3533-2.9199-0.7832-2.9199-1.402-2.1375-2.1621-4.75-1.6725-4.975-2.0254-5.25c-0.353-0.275-2.1543-2.8625-4.0039-5.75-1.8497-2.8875-3.7379-5.25-4.1953-5.25s-0.8301-0.4463-0.8301-0.9922c0-1.2919-4.1042-6.0078-5.2285-6.0078-0.4771 0-1.8591-1.0379-3.0703-2.3066-1.2113-1.2687-3.7762-3.0892-5.7012-4.045s-4.85-2.5838-6.5-3.6191-3.5339-1.9151-4.1856-1.9551-2.4517-0.5988-4-1.2402-3.0394-1.2419-3.3144-1.3359-1.4-0.5807-2.5-1.0821c-1.4863-0.6774-4.8039-1.0609-9.0449-1.2031zm-12.732 20.957c5.4477-0.024 11.067 0.2408 11.758 0.8145 0.5614 0.4659 2.5952 1.0434 4.5195 1.2851 1.925 0.2418 3.3876 0.9543 3.25 1.584-0.1375 0.6294 0.5821 1.1446 1.5996 1.1446 3.52 0 18.15 12.385 18.15 15.365 0 0.5201 1.056 2.339 2.3476 4.041 4.2469 5.5967 7.0513 29.655 4.2071 36.094-1.0614 2.4028-1.0092 2.2557-2.0547 5.9902-0.4604 1.6446-1.4376 3.59-2.1699 4.3223-0.7322 0.7322-1.3301 1.974-1.3301 2.7597s-0.45 1.4278-1 1.4278-1 0.5358-1 1.1894c0 1.8166-9.0254 9.7242-13.25 11.609-2.0625 0.9203-3.75 1.9777-3.75 2.3496 0 0.372-1.7989 0.9804-3.9961 1.3516-2.1971 0.3712-4.2482 1.0856-4.5586 1.5878-0.7275 1.1767-22.15 1.1996-22.877 0.024-0.4656-0.7533-3.495-1.4948-9.3183-2.2774-0.6875-0.092-1.25-0.5512-1.25-1.0214 0-0.4701-1.2375-1.4024-2.75-2.0704-2.8398-1.2541-12.065-10.017-15.969-15.17-1.2199-1.61-2.753-5.3225-3.4082-8.25-0.6551-2.9275-1.5982-5.3222-2.0937-5.3222-0.5012 0-0.8001-5.9904-0.6758-13.5 0.1229-7.425 0.5826-13.5 1.0215-13.5 0.439 0 1.3113-1.9125 1.9394-4.25 0.6282-2.3375 1.4539-4.475 1.836-4.75 0.382-0.275 1.7718-2.075 3.0879-4 5.2364-7.6586 18.944-17 24.947-17 1.1346 0 2.0645-0.4126 2.0645-0.9161 0-0.5766 5.275-0.8881 10.723-0.9121z" style="fill:#f3f3f2"/>
     <path d="m-4112.3 5407.5c-7.686 0.2942-11.764 0.8443-12.023 1.6231-0.216 0.6481-1.9555 1.1777-3.8672 1.1777-2.0624 0-3.2241 0.4066-2.8574 1 0.3488 0.5643-0.4673 1-1.8711 1-1.3681 0-3.1031 0.6167-3.8555 1.3691s-2.471 1.7155-3.8203 2.1407c-4.4718 1.4092-16.953 11.26-16.953 13.381 0 0.4925-0.5842 1.1191-1.2969 1.3926-1.9053 0.7311-11.703 15.593-11.703 17.752 0 1.016-0.45 2.1249-1 2.4648-0.55 0.34-1 1.6268-1 2.8594 0 1.2325-0.5625 2.8028-1.25 3.4902-2.1051 2.1048-1.6556 34.806 0.5312 38.65 0.9387 1.65 1.711 3.7875 1.711 4.75s0.6065 1.75 1.3398 1.75c0.7334 0 1.334 0.6797 1.334 1.5098 0 2.419 4.5572 11.469 5.4863 10.894 0.4653-0.2876 0.8477 0.1386 0.8477 0.9473 0 1.7688 13.85 15.648 15.615 15.648 0.6824 0 1.8357 0.5771 2.5625 1.2832 1.2924 1.2555 11.948 6.7168 13.106 6.7168 0.3218 0 1.8521 0.5359 3.4004 1.1914s5.9664 1.668 9.8164 2.25c13.518 2.0435 31.175 1.2838 33.92-1.4609 0.5387-0.5386 2.4381-0.9805 4.2207-0.9805 1.7825 0 3.4789-0.3853 3.7695-0.8555 0.2905-0.4701 3.3159-1.871 6.7227-3.1132 6.0971-2.2231 7.1018-2.8003 10.938-6.2813 1.0606-0.9625 2.2703-1.75 2.6875-1.75 1.0205 0 10.414-10.646 12.023-13.627 0.7051-1.3056 1.6455-2.3731 2.0899-2.3731s1.4028-1.8 2.1289-4 1.6362-4 2.0234-4c1.2733 0 3.9743-8.4854 3.9903-12.533 0.012-3.0138 0.2617-3.6065 1.0371-2.4668 0.7077 1.0401 0.9326-3.8408 0.7343-15.918-0.2107-12.837-0.6139-17.526-1.5351-17.832-0.6875-0.2286-1.25-1.2858-1.25-2.3477 0-1.0614-0.4179-2.711-0.9277-3.666-0.5099-0.9551-1.1826-2.4113-1.4942-3.2363-0.6022-1.5939-2.7374-5.1655-3.5879-6-0.2802-0.275-1.3788-2.1577-2.4414-4.1836-1.0626-2.026-2.9706-4.2385-4.2402-4.918s-2.3086-1.6292-2.3086-2.1093c0-1.761-11.784-11.789-13.854-11.789-0.6308 0-1.1465-0.45-1.1465-1s-0.9-1-2-1-2-0.4104-2-0.9121c0-0.5016-1.8-1.2162-4-1.5879-2.2-0.3716-4-1.0862-4-1.5879 0-0.5016-1.3782-0.9121-3.0606-0.9121-1.6825 0-2.8062-0.4076-2.498-0.9062 0.8131-1.3158-16.667-2.4124-30.193-1.8946zm1.4493 20.922c8.4978-0.095 25.689 1.9066 27.299 3.791 0.275 0.3219 2.075 1.4602 4 2.5293 1.925 1.0692 4.0842 2.5223 4.7988 3.2285 0.7145 0.7061 2.1139 1.8569 3.1094 2.5567 2.7841 1.957 9.8874 12.57 10.607 15.848 0.3531 1.6081 1.0106 2.9239 1.4609 2.9239 1.4327 0 3.2613 22.735 1.8965 23.578-0.4804 0.297-0.873 1.8464-0.873 3.4433 0 3.8675-3.508 13.073-6.002 15.75-1.0988 1.1794-1.998 2.4257-1.998 2.7696 0 0.5691-4.8863 5.3512-8.2402 8.0644-4.1678 3.3716-9.7955 6.4407-13.76 7.502-6.603 1.7677-21.673 2.0501-27.25 0.5117-2.6125-0.7207-4.75-1.1239-4.75-0.8965v0.02l-0.01 0.01c-0.1479 0.1033-1.3936-0.6162-2.8926-1.6836-1.5974-1.1374-3.3974-2.0683-4-2.0683s-1.0957-0.45-1.0957-1-0.5815-1-1.291-1c-1.657 0-9.709-7.2603-9.709-8.754 0-0.6234-0.7875-1.7257-1.75-2.4511-5.997-4.5197-12.315-32.398-8.4082-37.106 0.6267-0.7553 0.8923-1.6213 0.5898-1.9238-0.3024-0.3024 0.1526-2.2277 1.0098-4.2793s1.5586-4.5745 1.5586-5.6074c0-1.0328 0.3518-1.8789 0.7832-1.8789s1.5683-1.3252 2.5254-2.9454c2.989-5.0599 9.0051-11.149 13.691-13.857 2.475-1.4304 4.725-2.9057 5-3.2773 0.275-0.3715 2.4125-0.9941 4.75-1.3848s4.25-1.083 4.25-1.5371c0-0.579 1.8638-0.8433 4.6934-0.875z" style="fill:#f3f3f2"/>
     <path d="m-4242.3 5407.3c-11.356 0-27.283 1.8691-27.283 3.2012 0 0.4398-0.6999 0.7988-1.5547 0.7988-4.4864 0-20.445 11.742-20.445 15.043 0 0.5261-0.4192 0.957-0.9297 0.957-3.9261 0-7.1264 26.803-3.6191 30.311 0.7988 0.7988 1.2047 1.6995 0.9003 2.0039-1.0534 1.0534 3.8487 8.3722 6.7598 10.092 1.6079 0.9498 2.6629 2.1469 2.3457 2.6601-0.3171 0.5132 0.064 0.9336 0.8477 0.9336 0.7833 0 2.5683 0.9 3.9668 2 1.3984 1.1 3.3948 2 4.4355 2 1.0408 0 2.3193 0.414 2.8418 0.9199 1.2466 1.2068 18.205 6.0801 21.158 6.0801 1.2612 0 2.293 0.4079 2.293 0.9063s2.2486 1.2156 4.998 1.5937 5.2505 1.0954 5.5586 1.5938c0.3081 0.4985 1.847 0.9062 3.4199 0.9062 2.7949 0 9.1928 2.759 9.8555 4.25 0.1834 0.4125 0.7788 0.75 1.3223 0.75 3.6397 0 7.9802 8.7355 7.1933 14.477-0.6926 5.053-6.5381 11.523-10.41 11.523-1.1309 0-1.8269 0.3712-1.5469 0.8242 0.6524 1.0557-7.3073 1.702-19.391 1.5762-9.4505-0.098-24-2.8473-24-4.5352 0-0.4756-0.5876-0.8652-1.3047-0.8652-1.3169 0-11.77-4.8858-12.695-5.9336-0.6256-0.7086-4.8096-3.0664-5.4414-3.0664-0.2576 0-0.7573 1.5447-1.1113 3.4316s-1.276 3.673-2.0469 3.9688-1.4004 1.4182-1.4004 2.4961c0 1.078-0.6344 2.5934-1.4082 3.3672-1.7256 1.7256-2.5023 7.2224-1.0215 7.2324 0.5893 0 1.8295 0.7631 2.7559 1.6895 0.9265 0.9265 2.5829 1.9683 3.6796 2.3164 1.0968 0.3481 1.9942 1.0535 1.9942 1.5664 0 0.513 1.0968 0.9316 2.4394 0.9316 1.3425 0 2.7207 0.45 3.0606 1s1.4911 1 2.5586 1c1.0676 0 1.9414 0.3756 1.9414 0.834 0 0.4583 0.5625 0.8862 1.25 0.9512s4.1302 0.8389 7.6504 1.7207c3.5202 0.8817 8.9202 1.9749 12 2.4277 9.0051 1.3233 20.067 1.172 27.594-0.377 11.389-2.3438 14.945-3.3892 15.316-4.5039 0.193-0.5791 1.1436-1.0527 2.1133-1.0527 5.669 0 20.429-13.204 19.283-17.25-0.1169-0.4125 0.1833-0.75 0.668-0.75 3.0375 0 4.3628-22.454 1.5762-26.707-0.8011-1.2226-1.4571-2.9105-1.4571-3.752 0-2.01-8.8882-11.053-11.76-11.965-1.2319-0.391-2.2403-1.1297-2.2403-1.6426 0-0.513-0.9-0.9336-2-0.9336s-2-0.45-2-1-0.8738-1-1.9414-1c-1.0675 0-2.2031-0.4232-2.5234-0.9414s-2.5964-1.2441-5.0586-1.6133c-2.4622-0.3693-4.4766-1.0711-4.4766-1.5586 0-0.4876-2.2762-0.8867-5.0586-0.8867-2.7825 0-4.8069-0.4084-4.498-0.9082s-2.6102-1.4753-6.4863-2.168c-3.8762-0.6927-7.2779-1.6343-7.5606-2.0918-0.2828-0.4575-2.4001-0.8376-4.7051-0.8476-2.4043-0.01-3.6655-0.3482-2.959-0.7969 0.7872-0.5001-0.295-1.2128-3-1.9746-7.8609-2.2138-13.994-11.363-10.918-16.289 0.6518-1.0436 1.1855-2.6001 1.1855-3.4589 0-2.0457 4.6493-6.1079 8.75-7.6465 1.7875-0.6707 3.25-1.5135 3.25-1.8731 0-1.0781 27.767-1.1443 31.264-0.074 1.7803 0.5447 5.9363 1.8078 9.2363 2.8086s6.767 2.4648 7.7032 3.2519c3.8505 3.2378 5.4652 2.3816 7.4375-3.9453 1.0233-3.2826 2.1968-5.9785 2.6093-5.9785s0.75-0.8817 0.75-1.9492c0-1.0676 0.45-2.2186 1-2.5586 1.3059-0.804 1.3021-3.5 0-3.5-0.5527 0-3.3211-1.1165-6.1523-2.4824-2.8313-1.3658-6.6531-2.7659-8.4942-3.1113-1.8411-0.3453-3.3476-0.9377-3.3476-1.3145 0-1.3226-14.145-3.0918-24.717-3.0918z" style="fill:#f3f3f2"/>
     <path d="m-4355.6 5359.2v108.84c0 59.861 0.299 109.14 0.666 109.5 0.3671 0.3676 286.45 0.556 635.75 0.418l635.08-0.252 0.5078-218.51-243.51 0.5078v10l233.5 0.5078v197.99l-1252.5-0.502v-98.75c0-65.158 0.3402-98.752 1-98.762 0.55-0.01 51.49-3e-4 113.2 0.012l112.2 0.025 0.6406-3.4121c1.4784-7.8803 14.308-7.0822-118.31-7.3672z" style="fill:#f3f3f2"/>
    </g>
    <path d="m-1615 4855.9v0.02c-6.05 0.5639-15.5 1.2508-21 1.5254s-13.15 1.2205-17 2.1016c-3.85 0.8812-9.5875 1.5513-12.75 1.4883-3.6196-0.072-5.7501 0.2965-5.75 0.9961 0 0.6116-0.4047 0.8618-0.8985 0.5566-1.5903-0.9829-16.089 0.6501-15.418 1.7363 0.3434 0.5557 0.1446 0.7138-0.4414 0.3516-4.2575-2.6313-95.593 16.801-131.24 27.922-6.3251 1.9732-13.426 4.139-15.779 4.8125-2.3534 0.6735-3.9292 1.5728-3.502 2 0.4272 0.4276-0.5277 0.4499-2.1211 0.051-1.9145-0.4805-2.6785-0.3745-2.2539 0.3125 0.3704 0.5993-0.3084 1.0504-1.6016 1.0664-1.2339 0.015-8.7671 2.3208-16.742 5.123s-17.98 6.2697-22.232 7.7051c-4.5504 1.5361-7.4698 3.0334-7.0957 3.6387 0.3832 0.62 0.1403 0.7216-0.6133 0.2558-1.4034-0.8673-6.2503 1.3435-5.5234 2.5196 0.257 0.4158-0.4345 0.5202-1.5351 0.2324-1.1008-0.2879-2.0001-0.034-2 0.5625 0 0.6014-0.742 0.8011-1.6641 0.4472-1.2083-0.4636-1.4401-0.2761-0.8457 0.6856 0.5072 0.8207 0.4291 1.0833-0.2051 0.6914-1.3667-0.8447-15.018 4.2005-29.785 11.006-12.858 5.9256-14.992 6.8684-23.5 10.383-3.0251 1.2495-6.2118 2.8708-7.0801 3.6035-0.8683 0.7328-2.5278 1.332-3.6895 1.332-1.1618 0-2.3806 0.4327-2.707 0.961-0.3265 0.5282-6.5401 3.8813-13.809 7.4531-7.2685 3.5717-17.265 8.7575-22.215 11.523-4.9501 2.7659-9.675 5.3236-10.5 5.6836-5.5147 2.4063-18.754 10.984-18.27 11.838 0.3242 0.572 0.2369 0.7237-0.1933 0.3359-0.7999-0.7211-6.1445 1.8392-15.037 7.2032-2.75 1.6588-6.8001 3.9779-8.9981 5.1543-2.1982 1.1764-4.4482 2.672-5 3.3222-0.5519 0.6502-5.3908 3.7952-10.754 6.9903-5.3631 3.195-10.795 6.8535-12.07 8.1289-1.2754 1.2753-3.4116 2.798-4.7481 3.3847-2.221 0.975-10.028 6.3967-30.043 20.861-4.0634 2.9366-7.2645 5.7825-7.1133 6.3242 0.1511 0.5417-0.1864 0.6998-0.75 0.3515-0.5637-0.3484-1.0605 0.1809-1.1035 1.1758-0.051 1.169-0.2657 1.3394-0.6075 0.4844-0.3944-0.9872-1.1287-0.7587-2.8906 0.8965-1.2988 1.2201-2.1265 2.5968-1.8398 3.0605 0.2866 0.4638-0.1092 0.602-0.8789 0.3067-0.7696-0.2954-3.3794 1.043-5.8008 2.9726-13.036 10.388-22.578 18.292-35.113 29.088-7.6638 6.6-16.039 13.72-18.611 15.822-6.2922 5.1429-10.73 9.4297-38.178 36.867-31.519 31.508-33.988 34.144-34.08 36.383-0.048 1.179-0.2827 1.4146-0.6055 0.6074-0.5763-1.4413-4.0302 2.6099-3.5332 4.1445 0.1469 0.4534-0.16 0.5607-0.6816 0.2383-0.5215-0.3223-1.983 0.8818-3.2481 2.6758-1.265 1.794-3.825 4.8367-5.6894 6.7617-1.8643 1.925-6.0949 6.875-9.4004 11s-7.0749 8.625-8.377 10c-4.1298 4.3613-7.3847 8.7491-7.3847 9.9531 0 0.6407-0.4288 0.901-0.9512 0.5782-0.5224-0.3229-1.4945 0.4385-2.1621 1.6914-1.1077 2.0786-1.0664 2.1563 0.4726 0.8867 1.461-1.2054 1.6067-1.1862 1.0938 0.1504-0.3256 0.8486-1.5058 1.782-2.6231 2.0742-1.2863 0.3362-1.7552 0.9807-1.2773 1.7539 0.4596 0.7437 0.3386 0.9645-0.3086 0.5645-1.2741-0.7874-6.5038 5.1203-5.6934 6.4316 0.3112 0.5034 0.064 0.916-0.5507 0.916-0.615 0-0.7967 0.5193-0.4043 1.1543 0.4239 0.6858 0.2748 0.8839-0.3653 0.4883-0.6185-0.3822-3.4616 2.6404-6.6738 7.0957-5.8942 8.1752-8.3864 11.518-10.094 13.537-0.5699 0.6737-2.4491 3.3348-4.1757 5.9141-5.7361 8.5688-7.7753 11.302-9.0371 12.109-0.6876 0.4399-1.25 1.1867-1.25 1.6582 0 0.4716-4.275 7.2166-9.5 14.99s-9.5 14.866-9.5 15.76-0.2858 1.3412-0.6348 0.9922c-0.6495-0.6495-6.8492 8.953-8.4649 13.111-0.4936 1.2706-1.3474 2.032-1.8984 1.6914-0.5512-0.3406-1.0019 0.2607-1.0019 1.3379 0 1.0773-1.8032 4.8178-4.0059 8.3105-2.2026 3.4928-4.9923 8.2621-6.1992 10.6s-2.5538 4.25-2.9942 4.25-0.8378 0.7875-0.8808 1.75-1.357 3.775-2.9199 6.25-4.2841 7.4016-6.0469 10.947c-1.7627 3.5457-3.771 7.0112-4.4629 7.7031s-2.0745 3.5297-3.0723 6.3047c-0.9979 2.7749-2.0745 5.0449-2.3926 5.0449s-1.4669 2.0205-2.5527 4.4903c-1.0857 2.4697-2.3101 4.4899-2.7226 4.5-0.4125 0.01-0.75 0.4932-0.75 1.0839 0 0.5908-2.4751 6.2423-5.5 12.559-3.0251 6.3163-5.5 11.711-5.5 11.988 0 0.4834-1.3144 3.3721-9.3809 20.617-1.9907 4.2559-3.6191 8.1996-3.6191 8.7637s-0.4279 1.8067-0.9493 2.7617c-0.5213 0.955-2.587 5.7863-4.5918 10.736s-5.1442 12.6-6.9765 17c-1.8322 4.4-4.5095 11.6-5.9492 16s-3.002 8.9-3.4708 10c-1.0313 2.4204-2.5512 6.9974-7.9746 24-2.2806 7.15-4.6245 14.35-5.207 16-1.8365 5.2016-9.9878 34.349-10.348 37-0.1492 1.1-0.7179 3.125-1.2637 4.5s-1.4954 4.75-2.1094 7.5-1.8434 8.237-2.7324 12.193c-0.889 3.9565-1.3415 7.6386-1.0059 8.1816s0.2287 1.2225-0.2363 1.5098c-0.465 0.2874-1.363 2.9052-1.9961 5.8183-0.6332 2.9132-1.8813 8.4469-2.7754 12.297-0.894 3.85-1.8519 8.69-2.1269 10.756-0.2749 2.066-0.9007 4.0046-1.3926 4.3086s-0.9136 2.664-0.9356 5.2441c-0.022 2.58-0.7181 8.0664-1.5488 12.191-1.7475 8.6781-6.4132 44.569-9.5547 73.5-1.6694 15.374-2.1836 26.361-2.2226 47.5-0.024 12.985-0.1338 19.43-0.334 19.478-0.086-0.01-0.1899-1.1731-0.3086-3.4785-0.3255-6.325-0.5974 4.925-0.6074 25-0.01 20.096 0.2965 33.129 0.6796 29 0.077-0.8248 0.1448-1.2462 0.1993-1.2988h0.02c0.1989 0.1726 0.2278 5.771 0.041 14.633-0.2411 11.458 0.024 24.958 0.5879 30 0.5644 5.0423 1.5007 14.793 2.0801 21.668 0.5793 6.875 1.6939 16.325 2.4765 21s2.1269 14.35 2.9883 21.5c0.8615 7.15 2.0215 15.7 2.5762 19 0.5546 3.3 1.4266 8.925 1.9395 12.5s1.3473 8.525 1.8535 11 1.9057 9.45 3.1093 15.5 3.2587 15.5 4.5684 21 2.6478 11.8 2.9727 14c0.887 6.0058 6.0438 24.651 6.6504 24.045 0.2905-0.2909 0.3309 0.8179 0.09 2.4648-0.2574 1.7541 0.2284 4.0143 1.1738 5.4571 0.8876 1.3547 1.6133 3.1035 1.6133 3.8867s1.5818 6.5364 3.5137 12.785c1.9318 6.2487 3.9122 12.711 4.4004 14.361 3.4996 11.826 4.4635 14.5 5.2246 14.5 0.4747 0 0.8613 0.8062 0.8613 1.791s1.3499 5.9544 3 11.045c1.65 5.0906 3 9.9374 3 10.77 0 0.8895 0.4779 1.2181 1.1563 0.7989 0.6745-0.4169 0.8832-0.2759 0.5039 0.3379-0.357 0.5776 0.021 2.3345 0.8398 3.9043 0.8186 1.5697 1.4941 3.8399 1.4941 5.0449 0 1.2051 0.4559 2.4687 1.0059 2.8086 0.55 0.34 1 1.5171 1 2.6172 0 1.0999 0.4465 1.7266 0.9902 1.3906 0.5552-0.3431 0.7409 0.033 0.4239 0.8594-0.3105 0.809 0.073 2.5207 0.8515 3.8027 0.7788 1.2819 2.4803 5.1116 3.7813 8.5117 1.301 3.4 2.7529 5.9432 3.2265 5.6504 0.4737-0.2927 0.7391 0.076 0.5899 0.8184-0.3753 1.8681 3.0919 12.001 4.7656 13.928 0.7543 0.8683 1.371 2.0929 1.3711 2.7207 0 1.0436 2.438 6.9131 6.7949 16.361 0.9283 2.013 1.9791 3.481 2.334 3.2617 0.3548-0.2194 0.8778 0.4953 1.1641 1.5899 0.2862 1.0945 0.1222 1.7446-0.3653 1.4433s0.4037 2.0601 1.9805 5.2481c1.5768 3.1881 3.8499 8.0469 5.0508 10.797s2.6114 5.675 3.1348 6.5c0.5233 0.825 1.8978 3.6282 3.0546 6.2304 1.1713 2.6348 2.5599 4.4498 3.1329 4.0957 0.5659-0.3497 0.7559-0.1955 0.4238 0.3418-0.6212 1.0051 3.8101 10.311 13.254 27.832 2.9644 5.5 6.1235 11.476 7.0195 13.279 0.8961 1.8038 2.0152 2.9288 2.4863 2.5 0.184-0.1675 0.3017-0.2285 0.3497-0.1973 0.053 0.07-0.04 0.3407-0.2891 0.7715-0.4336 0.749-0.3662 1.649 0.1504 2 1.2658 0.8602 8.3164 12.642 8.3164 13.896 0 0.5482 0.7366 1.6083 1.6367 2.3554 0.9002 0.747 2.4697 3.1653 3.4883 5.3731 2.6078 5.6527 5.4601 10.451 7.834 13.182 1.11 1.2766 1.937 2.4354 1.8515 2.586-0.2102 0.2833 2.1644 4.1997 6.6055 10.896 1.6966 2.5582 3.4332 4.4375 3.8594 4.1758 0.426-0.2616 0.6511-0.086 0.5 0.3907-0.375 1.1815 13.291 22.283 14.432 22.283 0.5011 0 0.6566 0.411 0.3457 0.914-0.3109 0.5031-0.1876 1.0656 0.2735 1.25 0.4612 0.1845 2.8692 3.1435 5.3515 6.5742 2.4823 3.4308 4.8799 5.9058 5.3282 5.5 0.4477-0.4058 0.4803-0.1568 0.068 0.5547-0.8554 1.4828 1.2087 4.4596 2.5274 3.6446 0.4813-0.2974 0.6304 0.098 0.33 0.8808-0.3003 0.7826 0.072 2.0443 0.8282 2.8028 0.7559 0.7583 4.3977 5.4288 8.0937 10.379 13.028 17.448 15.705 20.581 16.93 19.824 0.5873-0.363 0.7238-0.1424 0.3184 0.5136-0.3915 0.6334 0.4341 2.2877 1.8457 3.6993 1.4046 1.4046 2.5527 2.9148 2.5527 3.3554 0 1.3891 6.8511 7.9198 7.6035 7.2481 0.3946-0.3526 0.4351-0.1472 0.092 0.457-0.3442 0.6042 0.1463 1.9574 1.0898 3.0059 0.9435 1.0486 4.1113 4.7043 7.0411 8.125 2.9297 3.4206 5.8347 6.1195 6.455 5.9961 0.6203-0.1235 1.1489 0.3146 1.1739 0.9746s0.6074 1.7636 1.2949 2.4511 1.25 1.556 1.25 1.9297c0 0.3736 1.6875 2.4695 3.75 4.6582s6.842 7.306 10.621 11.371c20.482 22.032 44.296 45.214 45.611 44.4 0.5865-0.3624 0.9441-0.062 0.793 0.666-0.1512 0.7284 0.3204 1.2 1.0488 1.0489 0.728-0.1512 1.0398 0.1863 0.6914 0.75-0.3483 0.5636-0.1305 1.0253 0.4844 1.0254 0.6149 0 0.8399 0.4499 0.5 1-0.5663 0.9164 0.7996 1.4454 2.8242 1.0937 0.4534-0.079 0.5716 0.2663 0.2617 0.7676-0.7445 1.2047 1.8634 3.3342 2.916 2.3808 0.4501-0.4078 0.5358-0.2443 0.1895 0.3633-0.8114 1.4238 3.8221 5.8129 5.2227 4.9473 0.6727-0.4157 0.8195-0.024 0.4003 1.0684-0.5131 1.3371-0.2726 1.5775 1.0645 1.0644 0.949-0.3642 1.5002-0.2976 1.2246 0.1484-0.574 0.9287 11.438 11.796 12.619 11.416 0.4268-0.1375 0.6649 0.1375 0.5274 0.6113-0.392 1.3505 17.372 16.18 18.527 15.467 0.583-0.3603 0.7309-0.152 0.3399 0.4804-0.4063 0.6575 0.9385 2.1488 3.2617 3.6153 2.1739 1.3724 4.2463 2.9715 4.6055 3.5527 0.3593 0.5813 1.1412 0.7538 1.7382 0.3848 0.6204-0.3834 0.8007-0.208 0.42 0.4082-0.799 1.2927 4.738 5.4837 5.8808 4.4512 0.4386-0.3963 0.5057-0.2091 0.1485 0.416-0.8567 1.4998 1.9045 3.7435 3.4394 2.7949 0.7412-0.458 0.9363-0.3177 0.5117 0.3691-0.3862 0.6249 0.5304 1.8842 2.0957 2.8789 1.5301 0.9727 3.4563 2.4765 4.2813 3.3418s3.075 2.6561 5 3.9786c1.925 1.3224 3.725 2.696 4 3.0527 0.8508 1.1034 5.4543 3.3853 6.3242 3.1348 0.4534-0.1305 0.5368 0.2285 0.1856 0.7968-0.7151 1.157 3.4835 3.0821 4.8945 2.2442 0.4975-0.2954 0.6085-0.057 0.2461 0.5293-0.8746 1.4153 8.9611 8.5996 10.484 7.6582 0.6574-0.4065 0.9084-0.2952 0.5703 0.2519-0.839 1.3576 17.958 14.658 19.43 13.748 0.7342-0.4537 0.9072-0.2923 0.4609 0.4297-0.3924 0.635-0.3075 1.1543 0.1894 1.1543 0.497 0 2.1914 1.1061 3.7657 2.4589 1.5744 1.3529 3.0618 2.2624 3.3047 2.0196 0.2428-0.2428 1.237 0.475 2.2089 1.5957 0.972 1.1207 2.6858 2.1064 3.8086 2.1914s1.8384 0.3569 1.5899 0.6055c-0.414 0.4138 5.8846 5.1288 6.8515 5.1289 0.2315 0 3.4741 2.0469 7.2051 4.5488 3.7311 2.5019 7.3839 4.3172 8.1192 4.0351 0.7352-0.2821 1.2305 0 1.0996 0.6211-0.1309 0.6227 0.7255 1.6356 1.9043 2.252 1.1789 0.6165 2.7969 1.6611 3.5937 2.3223 0.7967 0.6613 1.7436 0.9068 2.1055 0.5449s0.6582-0.1459 0.6582 0.4785c0 0.648 0.7143 0.8606 1.6641 0.4961 1.0685-0.4101 1.4221-0.2461 0.9863 0.459-0.3876 0.6271 0.2924 1.401 1.5859 1.8047 1.2455 0.3888 2.4887 0.9946 2.7637 1.3457 1.3759 1.7566 6.1947 4.0896 7.1836 3.4785 0.6877-0.425 0.8478-0.2459 0.4121 0.459-0.4172 0.6751-0.097 1.1542 0.7734 1.1543 0.8181 0 2.0907 0.5624 2.8282 1.25 2.5405 2.3684 13.502 7.7175 14.312 6.9843 0.4462-0.404 0.4866-0.1719 0.092 0.5157-0.4375 0.7602-0.1417 1.25 0.7558 1.25 0.8117 0 1.6252 0.3375 1.8086 0.75 0.1833 0.4125 6.5215 3.887 14.084 7.7207 7.5625 3.8336 13.75 7.25 13.75 7.5918 0 0.6688 7.6588 3.3361 9.791 3.4101 0.7105 0.025 1.6732 0.6609 2.1387 1.4141 0.5069 0.8203 1.3933 1.0524 2.209 0.5801 0.4353-0.2519 0.7219-0.3456 0.7988-0.2989 1e-4 0 0 0.01 0 0.01 0.026 0.046-0.027 0.1544-0.1758 0.3184-0.9593 1.0596 4.122 3.6944 5.4922 2.8476 0.6586-0.4071 0.7487-0.1587 0.2402 0.6641-0.609 0.9854-0.2505 1.1656 1.4434 0.7226 1.2404-0.3284 1.993-0.3316 1.6719-0.012-0.6816 0.6817 4.0069 3.2812 5.9179 3.2813 0.7163 0 1.4659 0.4911 1.666 1.0918 0.2002 0.6007 1.5454 1.163 2.9883 1.25 1.4428 0.087 2.4813 0.388 2.3086 0.6679-0.1728 0.28 1.5577 1.3278 3.8457 2.3301 2.2881 1.0022 6.4102 2.8541 9.1602 4.1152 8.2746 3.7949 14.383 5.7359 15.631 4.9649 0.7383-0.4564 0.9121-0.2978 0.4649 0.4258-0.4003 0.6478-0.1387 1.1582 0.5957 1.1582 0.7199 0 3.5438 1.1396 6.2754 2.5254 2.7317 1.3858 5.5663 2.2876 6.3008 2.0058 0.734-0.2819 1.0934-0.1185 0.7968 0.3613-0.7489 1.2118 5.0373 3.467 6.5293 2.545 0.7287-0.4504 0.9576-0.3319 0.5703 0.2949-0.3804 0.6154 0.7875 1.3135 2.8438 1.6992 1.9201 0.3602 3.4922 1.0254 3.4922 1.4785s1.5524 1.077 3.4492 1.3848c1.8969 0.3079 4.9345 1.2463 6.75 2.0859 5.2056 2.4071 12.094 4.5856 14.551 4.6016 1.2375 0.01 2.25 0.4637 2.25 1.0137s0.6964 0.9999 1.5488 1c0.8523 0 2.8521 0.6733 4.4434 1.4961 1.5912 0.8227 4.4506 1.6103 6.3535 1.75 1.9028 0.1396 3.2268 0.6312 2.9433 1.0917-0.2835 0.4608 0.9981 0.6992 2.8477 0.5313 2.1248-0.193 3.281 0.1169 3.1387 0.8398-0.1239 0.6293 1.1136 1.4012 2.75 1.7168 1.6364 0.3158 4.3246 0.8356 5.9746 1.1543s3 0.9356 3 1.3711c0 0.4354 2.2316 1.0874 4.959 1.4492s5.2286 1.095 5.5586 1.629c0.3301 0.5341 1.5919 0.9706 2.8046 0.9707 1.2129 0 4.6413 0.8901 7.6192 1.9785 2.9778 1.0884 7.0219 2.1009 8.9863 2.25 1.9645 0.1491 3.8489 0.6503 4.1875 1.1133 0.3386 0.4629 2.4312 0.913 4.6485 1s3.8251 0.4956 3.5742 0.9082c-0.2509 0.4125 0.696 0.75 2.1035 0.75 1.4074 0 2.5586 0.4499 2.5586 1 0 0.55 0.3375 0.9125 0.75 0.8046 1.9162-0.5005 13.055 1.5607 15.631 2.8926 1.5859 0.8201 4.1511 1.3053 5.6993 1.0781 1.5482-0.2273 2.622-0.1013 2.3867 0.2793-0.2352 0.3807 2.2634 0.9971 5.5527 1.3692 3.2893 0.3722 5.9805 1.1042 5.9805 1.6269 0 0.5228 2.475 0.9493 5.5 0.9493s5.5 0.4227 5.5 0.9394 3.1413 1.2487 6.9805 1.627 6.7381 1.0805 6.4414 1.5605c-0.2966 0.48 2.2995 0.9648 5.7695 1.0762 11.591 0.3724 12.43 0.4452 13.631 1.1875 0.6573 0.4062 2.0905 0.455 3.1856 0.1074s1.9922-0.1992 1.9922 0.3301c0 1.0197 4.6518 1.9239 14.5 2.8183 3.3 0.2997 6.5327 0.9811 7.1836 1.5157s4.4759 0.8938 8.5 0.7968c4.0241-0.096 7.9914 0.079 8.8164 0.3887 3.5407 1.3297 29.825 3.6625 44.666 3.9649 5.0416 0.1028 9.393 0.4124 9.668 0.6875 2.9209 2.921 166.1-1.891 164.26-4.8438-0.2252-0.3568 2.5864-0.525 6.2481-0.3652 4.2541 0.1856 6.1699-0.041 5.3047-0.625-0.9397-0.6342-0.3279-0.8872 2-0.8282 9.5585 0.2409 15.943-0.3832 15.258-1.4921-0.4499-0.728-0.2727-0.8822 0.4785-0.418 1.508 0.932 9.2956-0.3311 8.6348-1.4004-0.2704-0.4373 1.5643-0.6057 4.0781-0.373s4.3509 0.069 4.082-0.3653c-0.2689-0.434 0.9303-0.8081 2.666-0.8301 9.105-0.1168 15.983-0.6855 14.656-1.2128-1.5758-0.6265 9.0061-2.8121 19.941-4.1192 3.5424-0.4234 6.6159-1.3011 6.832-1.9492 0.2313-0.694 2.4388-1.1778 5.3692-1.1777 3.024 0 4.7365-0.3875 4.3652-0.9883-0.3511-0.5679 0.051-0.7344 0.9473-0.3906 2.1911 0.8407 8.7241-0.5222 8.0136-1.6719-0.3277-0.5302 0.9594-0.9492 2.9141-0.9492 1.9249 0 3.7304-0.3757 4.0137-0.834 0.2832-0.4583 1.9347-0.6238 3.6699-0.3692 2.0194 0.2964 3.4607-0.031 4.0039-0.9101 0.5027-0.8131 2.0885-1.2436 3.8887-1.0547 1.6723 0.1754 3.041-0.104 3.041-0.6192 0-0.5148 1.125-0.7199 2.5-0.457 1.375 0.2628 2.5 0.038 2.5-0.5 0-0.5375 2.36-1.2561 5.2441-1.5976 2.8842-0.3416 5.3973-1.0807 5.584-1.6407 0.1866-0.5601 1.8768-1.0175 3.7559-1.0175 1.8792 0 3.416-0.45 3.416-1 0-0.5501 1.6012-1 3.5586-1 1.9575 0 3.3133-0.3989 3.0117-0.8868-0.3016-0.488 0.01-0.8459 0.6914-0.7949 2.221 0.1673 9.1644-1.4613 12.389-2.9062 1.7332-0.7767 4.3487-1.4121 5.8105-1.4121 1.4619 0 2.439-0.353 2.1719-0.7852-0.2671-0.4321 0.2693-0.8659 1.1914-0.9609 4.0454-0.4187 8.1238-1.5312 7.7617-2.1172-0.2169-0.3509 0.5748-0.7127 1.7598-0.8047 3.7819-0.2939 8.0817-1.6169 9.3379-2.8731 0.6699-0.6699 3.2653-1.525 5.7676-1.9004 2.5022-0.3752 4.5488-1.1046 4.5488-1.621 0-0.5163 1.0358-0.9375 2.3008-0.9375s2.7275-0.3718 3.25-0.8262c0.5225-0.4543 2.9742-1.4085 5.4492-2.1192 2.475-0.7105 5.175-1.531 6-1.8242s2.1305-0.6591 2.9004-0.8144c0.7699-0.1554 1.6706-0.7217 2.0019-1.2578s2.3336-1.3004 4.4492-1.6973c2.769-0.5195 3.4691-0.9781 2.4981-1.6367-1.0063-0.6823-0.8416-0.8523 0.6504-0.6699 2.3874 0.292 12.23-2.9106 13.057-4.2481 0.3195-0.5169 0.9694-0.6992 1.4434-0.4062 0.474 0.2929 1.1448 0.074 1.4902-0.4844 0.3455-0.559 1.7259-1.0156 3.0684-1.0156 1.3426 0 2.4414-0.4501 2.4414-1 0-0.5501 0.8738-1.0001 1.9414-1 1.0676 0 2.1979-0.4162 2.5117-0.9239 0.3137-0.5077 1.9892-1.234 3.7246-1.6152 1.7353-0.3811 4.5425-1.547 6.2383-2.5898 1.6958-1.043 4.7715-2.3575 6.834-2.9219 2.0625-0.5645 3.75-1.4595 3.75-1.9883s1.125-0.9609 2.5-0.9609 2.5-0.4501 2.5-1c0-0.5501 0.6648-1.0001 1.4765-1 0.8117 0 2.9492-0.8982 4.75-1.9961 1.8008-1.098 4.0939-2 5.0957-2 1.0019 0 2.5172-0.7008 3.3692-1.5528s2.8373-1.8081 4.4121-2.123c1.5748-0.315 2.6525-0.9155 2.3926-1.336-0.407-0.6586 0.4312-1.0503 4.2773-1.996 0.3999-0.098 1.8516-0.809 3.2266-1.5801 1.375-0.7712 3.7649-1.8555 5.3105-2.4082 1.5456-0.5528 2.5769-1.3806 2.293-1.8399-0.2839-0.4594 0.086-0.834 0.8203-0.834 1.3662 0 9.8757-3.6161 12.576-5.3437 0.825-0.5277 3.975-2.239 7-3.8027 3.025-1.5635 7.3-3.9795 9.5-5.3692s5.0125-2.8477 6.25-3.2402c1.2375-0.3924 2.25-1.1336 2.25-1.6465 0-0.513 0.9-0.9317 2-0.9316 1.1 0 2-0.4501 2-1 0-0.5501 0.7012-1.0001 1.5586-1 0.9235 0 1.2685-0.4702 0.8457-1.1543-0.3924-0.6349-0.3061-0.9038 0.1914-0.5977s2.7043-0.5259 4.9043-1.8477c2.2-1.3217 5.2375-2.8969 6.75-3.5s2.75-1.458 2.75-1.9003 1.2375-1.3017 2.75-1.9082c4.0791-1.6357 11.41-5.9037 13.723-7.9903 1.1155-1.0063 5.0664-3.5062 8.7813-5.5547 3.7148-2.0485 6.5013-4.1334 6.1914-4.6347-0.3097-0.5014 0.3636-0.9121 1.4961-0.9121 1.1324 0 2.0586-0.4501 2.0586-1 0-0.5501 0.8221-1.0001 1.8262-1 1.0041 0 2.8821-1.125 4.1738-2.5s2.6984-2.5 3.125-2.5c0.4265 0 2.7759-1.35 5.2207-3 2.4448-1.65 4.7759-3 5.1816-3 0.40579 0 1.466-0.7875 2.3555-1.75s3.9787-3.3251 6.8652-5.25c2.8864-1.9251 5.25-3.8376 5.25-4.25 1e-3 -0.4126 0.67695-0.75 1.502-0.75s1.5-0.375 1.5-0.8321c0-0.457 1.1105-1.4246 2.4668-2.1504 1.3562-0.7258 2.2866-1.608 2.0684-1.9609-0.2181-0.3529 0.58576-0.7157 1.7852-0.8047s2.8547-0.9813 3.6797-1.9824c0.825-1.001 3.75-3.3835 6.5-5.2949s5.1507-3.8121 5.334-4.2246c0.1834-0.4126 0.71273-0.75 1.1777-0.75s2.5155-1.575 4.5566-3.5c2.0411-1.9251 4.0747-3.5 4.5195-3.5 1.4272 0 5.9047-4.6735 5.1758-5.4024-0.3868-0.3869 0.0358-0.4217 0.93945-0.074 1.0718 0.4114 2.0304-0.092 2.7559-1.4473 0.61149-1.1427 1.6709-2.0762 2.3555-2.0761 0.6847 0 2.7312-1.575 4.5469-3.5 1.8157-1.9251 3.7415-3.5001 4.2793-3.5 0.5377 0 0.65607-0.5193 0.26367-1.1543-0.4175-0.6755-0.27615-0.8846 0.33984-0.5039 0.57911 0.3579 2.4484-0.6545 4.1543-2.2481 1.6-1.4946 2.9312-2.5679 3.0898-2.5078h0.018c2.5e-4 0 2e-3 0.012 2e-3 0.012 0 0.3789 4.8682-3.9988 13.75-12.363 1.898-1.7875 3.6445-3.25 3.8828-3.25 0.2384 0 1.9608-1.5271 3.8262-3.3925 1.8655-1.8654 3.8384-3.5529 4.3848-3.75 0.5465-0.1971 4.5416-3.7325 8.877-7.8575 4.3352-4.125 9.5456-8.9746 11.58-10.775 2.0345-1.8008 3.6992-3.7133 3.6992-4.25s0.5625-0.9804 1.25-0.9804 2.3205-1.5788 3.6289-3.5c1.3084-1.9213 2.6925-3.4942 3.0762-3.4942 0.80948 0 15.045-13.94 15.045-14.732 0-0.7564 5.3501-5.2676 6.25-5.2676 0.4125-7e-4 0.75-0.43 0.75-0.955s1.0125-2.0097 2.25-3.2989c1.2375-1.2893 3.4594-3.6695 4.9375-5.2929 1.478-1.6231 3.278-3.4395 4-4.0332 0.7219-0.5937 3.41-3.5187 5.9726-6.5 5.8852-6.8467 16.756-19.667 19.357-22.828 1.0901-1.3248 3.1074-3.643 4.4824-5.1504s4.075-4.6552 6-6.9961c1.925-2.341 4.5125-5.3765 5.75-6.7461 1.2375-1.3697 2.2512-2.7635 2.252-3.0957s1.1161-1.8981 2.4785-3.4824c1.3625-1.5842 2.1918-3.341 1.8438-3.9043-0.3481-0.5632-0.19496-0.7563 0.33984-0.4258s1.6167-0.3156 2.4043-1.4375c0.7877-1.1218 2.2092-2.9545 3.1602-4.0742 0.9511-1.1197 1.4416-2.5417 1.0898-3.1582-0.3517-0.6165-0.28798-0.8041 0.14062-0.4179 0.87928 0.7925 3.541-1.5187 3.541-3.0743 0-0.5583 0.79863-1.6016 1.7734-2.3203 1.9437-1.4331 23.198-30.292 24.9-33.809 0.39932-0.825 1.11-1.95 1.5801-2.5 2.3314-2.7273 11.746-16.644 11.746-17.363 0-0.4539 0.9-1.6413 2-2.6368 1.1-0.9954 2-2.2769 2-2.8496 0-1.0405 0.6028-2.0175 9.3457-15.15 2.5631-3.85 4.6562-7.5315 4.6562-8.1797-1e-3 -0.6482 0.56055-1.7788 1.248-2.5156 0.6875-0.7369 2.0999-2.9072 3.1387-4.8222 1.0388-1.9149 3.4224-5.8387 5.2969-8.7207 1.8745-2.8821 4.0548-6.7907 4.8457-8.6836 0.7908-1.8927 1.9257-3.7432 2.5215-4.1114 0.59592-0.3683 0.80449-1.395 0.46289-2.2851-0.3419-0.8899-0.30737-1.3015 0.0801-0.9141 0.3874 0.3873 1.2319-0.3001 1.875-1.5293s2.6782-4.9383 4.5234-8.2383 7.3559-14.1 12.246-24c4.8902-9.9 9.3216-18.675 9.8457-19.5 0.9066-1.4268 1.7993-3.3152 5.9102-12.5 0.9846-2.2 3.2111-7.15 4.9473-11s3.1268-7.1146 3.0918-7.2558c-0.0352-0.1413 1.0668-2.4888 2.4492-5.2168s2.5195-5.5384 2.5195-6.2442c3e-3 -0.7058 0.67544-2.565 1.4941-4.1347 0.8183-1.5698 1.1968-3.3286 0.83985-3.9063-0.3571-0.5778-0.21033-0.7788 0.32617-0.4472s1.7947-1.7366 2.7949-4.5958c1.0002-2.859 2.8794-7.5747 4.1777-10.478s2.3613-5.852 2.3613-6.5507 0.39506-1.6983 0.87696-2.2208c0.482-0.5225 1.8916-4.0992 3.1328-7.9492 1.2413-3.85 2.5526-7.45 2.9141-8 0.3614-0.55 1.4852-3.7 2.498-7s2.3863-7.35 3.0527-9c0.6663-1.65 2.4703-7.05 4.0098-12s4.042-12.825 5.5606-17.5c3.9551-12.175 6.0626-21.017 5.3027-22.246-0.4133-0.6688-0.17452-0.7628 0.64258-0.2578 0.9795 0.6053 1.1746 0.1507 0.79297-1.8457-0.2785-1.4568-0.20319-2.6504 0.16601-2.6504 1.289 0 13.726-49.57 15.557-62 0.3644-2.475 1.2967-7.022 2.0703-10.107 1.628-6.4937 6.2132-33.918 7.5059-44.893 0.48589-4.125 1.5766-12.45 2.4238-18.5 4.0522-28.935 6.8336-69.579 6.1211-89.441-0.2976-8.2945-0.13332-12.89 0.42968-12 1.7562 2.7757 0.48252-75.298-1.5508-95.059-0.2547-2.475-0.91148-9.675-1.459-16s-1.4126-13.75-1.9219-16.5c-0.5092-2.75-1.2458-9.275-1.6367-14.5-0.39079-5.225-1.1041-9.9865-1.5859-10.584s-1.0873-5.4784-1.3457-10.846c-0.2584-5.3672-0.9056-10.283-1.4375-10.924-0.5318-0.6409-1.4871-5.2099-2.123-10.154-2.0244-15.741-2.1757-16.497-3.207-15.859-0.6182 0.3821-0.75105-0.1795-0.34375-1.4628 0.9051-2.8519-0.39379-9.3207-1.709-8.5079-0.6046 0.3737-0.74874 0.1655-0.33984-0.4961 0.7612-1.2316-1.7253-16.643-3.9414-24.428-0.746-2.6206-1.3535-4.8706-1.3535-5 0.0228-2.3704-1.5448-8.5801-2.082-8.248-0.40193 0.2483-0.51135-0.6937-0.24415-2.0918 0.2673-1.398 0.0189-3.521-0.55078-4.7188-1.3635-2.8668-4.9321-15.245-5.6738-19.68-0.322-1.925-1.5203-6.65-2.6641-10.5-10.681-35.954-18.922-61.306-23.402-72-0.6914-1.65-2.2834-5.925-3.5371-9.5-1.2538-3.575-3.0568-8.3-4.0078-10.5s-2.7686-6.7-4.0391-10c-1.2704-3.3-2.6089-6.45-2.9746-7-0.36577-0.55-1.2462-2.7986-1.9551-4.9961-2.1396-6.6326-6.6482-15.486-7.4961-14.721-0.4374 0.3951-0.51081 0.2152-0.16211-0.3964 0.7486-1.3128-2.2317-9.3868-3.4648-9.3868-0.4666 0-0.84766-0.7264-0.84766-1.6132 0-2.5353-9.1786-21.395-10.127-20.809-0.4676 0.289-0.55361-0.2476-0.19141-1.1914 0.4821-1.2564 0.30369-1.4939-0.66601-0.8946-0.8705 0.538-1.0854 0.4314-0.62695-0.3105 0.3838-0.6207-1.3103-5.0777-3.7637-9.9043s-5.1581-10.352-6.0117-12.277c-3.7627-8.4858-13.42-25.48-14.367-25.283-0.5939 0.123-0.80283-0.6981-0.48633-1.9082 0.3761-1.4389 0.185-1.8922-0.5918-1.4121-0.7045 0.4353-0.94706 0.1893-0.63086-0.6347 0.5766-1.5025-5.3324-11.005-6.4238-10.33-0.38378 0.2372-0.76089-0.3985-0.83789-1.4141-0.0766-1.0159-1.9694-4.7499-4.207-8.293-2.2377-3.5431-4.0684-6.7977-4.0684-7.2363 0-0.4387-1.125-2.2735-2.5-4.0762-1.375-1.8028-2.5-3.4955-2.5-3.7636 0-0.6773-9.7058-16.264-11.459-18.402-0.7872-0.9599-4.3755-6.2461-7.9746-11.746s-7.2424-10.9-8.0957-12-5.6676-7.85-10.699-15-10.977-15.308-13.211-18.129c-2.2337-2.8205-5.8606-7.496-8.0606-10.393-4.2318-5.5718-14.552-18.452-16.809-20.978-0.7371-0.825-2.594-3.1812-4.127-5.2382-1.533-2.0573-3.2563-3.4504-3.8301-3.0958-0.5909 0.3652-0.74708 0.1647-0.35938-0.4628 0.6661-1.0776-8.3104-11.86-20.986-25.203-3.3961-3.575-7.235-7.7849-8.5312-9.3574-7.2302-8.7715-39.083-40.816-52.857-53.176-3.575-3.2078-7.8075-7.0838-9.4043-8.6133-1.5968-1.5294-3.2941-2.5364-3.7734-2.2402s-0.74876 0.1294-0.59766-0.3672c0.2781-0.9134-9.7461-10.407-18.738-17.746-2.6956-2.2-8.2245-6.8121-12.287-10.25-4.0627-3.438-7.864-5.9562-8.4473-5.5957-0.5835 0.3604-0.83726 0.2474-0.56446-0.25 0.2727-0.4975-0.333-1.6918-1.3457-2.6543-1.2342-1.1729-1.8651-1.3378-1.9121-0.5-0.0386 0.6875-0.37608 0.4804-0.75-0.459-0.37378-0.9393-4.2797-4.418-8.6797-7.7324-4.4-3.3143-9.2997-7.0448-10.889-8.291-3.2033-2.5124-23.036-16.907-31.611-22.943-28.101-19.781-89.295-56.769-91.406-55.25-0.1256 0.09-0.2191 0.122-0.2578 0.1133-0.023-0.041 0.038-0.1652 0.1875-0.3633 0.2838-0.3752-1.4037-1.6488-3.75-2.83-2.3462-1.1812-12.366-6.2956-22.266-11.365-9.9001-5.0696-21.15-10.561-25-12.205-3.85-1.6444-9.25-4.0725-12-5.3946s-6.5751-3.0712-8.5-3.8847c-1.925-0.8136-7.7751-3.3435-13-5.625-14.886-6.4998-22.272-9.1228-23.92-8.4903-0.8357 0.3208-1.198 0.2625-0.8047-0.1308 1.2171-1.2172-33.343-14.958-39.275-15.615-1.375-0.1523-2.725-0.5272-3-0.834-1.2669-1.4134-15.004-5.5714-15.033-4.5507-0.018 0.6165-0.5745 0.4411-1.25-0.3907-0.67-0.825-3.9169-2.2593-7.2168-3.1875-3.3-0.9283-10.725-3.0421-16.5-4.6953-24.252-6.9427-37.019-10.381-45.5-12.25-23.176-5.1078-33.038-6.9599-34.699-6.5254-1.0952 0.2864-1.5486 0.058-1.1543-0.58 0.4179-0.6762-0.2951-0.8705-1.998-0.545-1.4567 0.2785-2.6484 0.219-2.6484-0.1289 0-1.7265-58.298-11.332-66.889-11.022-1.9865 0.072-6.3113-0.6204-9.6113-1.5371-3.3889-0.9414-11.222-1.8539-18-2.0957-6.6-0.2355-13.125-0.6334-14.5-0.8847-11.551-2.1109-127.4-2.6214-148.5-0.6543zm82.699 8.3633v0.01l0.01 0.01c34.982 0.4546 70.227 2.2642 92.291 5.2539 5.5 0.7452 15.85 2.0888 23 2.9844s16.6 2.2897 21 3.0977c4.4 0.8079 12.725 2.1322 18.5 2.9433s12.75 2.1232 15.5 2.916c2.75 0.7929 8.15 1.9208 12 2.5078 7.3034 1.1134 25.944 5.3142 42.932 9.6739 5.4622 1.4018 10.786 2.7129 11.83 2.914 5.2913 1.019 34.657 9.6854 47.738 14.088 4.125 1.3882 10.2 3.3129 13.5 4.2774 3.2999 0.9645 7.3499 2.3228 9 3.0195 1.65 0.6966 8.4 3.2293 15 5.627 6.5999 2.3978 14.987 5.4762 18.639 6.8418s6.9144 2.285 7.25 2.041c0.1427-0.1037 0.2402-0.1414 0.2754-0.125 0.024 0.039-0.033 0.1632-0.1777 0.3554-0.7454 0.9884 19.622 9.4917 21.244 8.8692 0.8565-0.3287 1.1037-0.091 0.6563 0.6328-0.4825 0.7807-0.1564 0.9438 1 0.5 1.019-0.3911 1.4664-0.2571 1.1035 0.3301-0.5636 0.9119 1.0871 1.3875 4.3242 1.2461 0.7239-0.032 1.0702 0.1895 0.7695 0.4902-0.8638 0.8638 9.4877 5.326 10.666 4.5977 0.6204-0.3834 0.7625-0.1774 0.3438 0.5-0.6421 1.039 1.2625 1.6764 3.7285 1.248 0.4534-0.079 0.5602 0.2864 0.2363 0.8105-0.3239 0.524 0.4303 1.2766 1.6758 1.6719s7.3536 3.1374 13.574 6.0938c6.2205 2.9564 11.802 5.0712 12.404 4.6992s0.8279-0.2462 0.502 0.2812c-0.6325 1.0234 24.934 14.944 27.022 14.713 0.6817-0.075 1.0227 0.214 0.7578 0.6426s2.7784 2.4614 6.7617 4.5176c3.9833 2.0563 9.475 4.9972 12.205 6.5351 2.73 1.5379 5.43 2.532 6 2.209 0.5699-0.323 0.7131-0.23 0.3183 0.2071-0.3948 0.4372 1.8552 2.3661 5 4.2871s7.7438 4.7623 10.219 6.3125c9.9164 6.2109 15.389 9.2597 16.619 9.2597 0.7112 0 1.1214 0.2766 0.9121 0.6153-0.3636 0.5883 2.1486 2.3924 10.969 7.8769 2.2 1.368 5.2472 3.3378 6.7715 4.377 1.5243 1.0391 3.2811 1.5746 3.9043 1.1894 0.6355-0.3927 0.859-0.2585 0.5097 0.3067-0.3426 0.5542 1.3504 2.4245 3.7618 4.1562 3.0436 2.1858 4.54 2.7655 4.8906 1.8965 0.3342-0.8285 0.53199-0.7231 0.58399 0.3105 0.0434 0.8591 1.4922 2.6088 3.2207 3.8868 1.7286 1.278 2.8274 1.812 2.4414 1.1875-0.3859-0.6245-0.22508-1.1369 0.35742-1.1367 0.5824 0 1.0586 0.6151 1.0586 1.3671 0 0.7519 1.9125 2.631 4.25 4.1739 4.0078 2.6454 15.461 11.121 29.473 21.812 3.4221 2.6112 6.4974 5.1936 6.834 5.7382 0.3366 0.5447 2.261 2.0489 4.2774 3.3418 2.0162 1.2929 7.716 5.7974 12.666 10.012 4.95 4.2145 12.823 10.902 17.496 14.859 4.6726 3.9577 9.899 8.5452 11.615 10.195 1.7163 1.6499 5.9745 5.475 9.4629 8.5 8.6429 7.4948 45.025 43.818 58.406 58.312 5.9981 6.4971 11.849 12.83 13 14.072s2.7517 2.0797 3.5566 1.8613c0.52796-0.1434 0.82536-0.2025 0.89648-0.1562h0.012c1.8e-4 6e-4 -1.6e-4 -4e-4 0 0.01h2e-3c0.0269 0.078-0.23951 0.2992-0.79297 0.6875-1.6984 1.1918 4.4281 7.867 6.8066 7.416 1.1947-0.2265 1.2464-0.093 0.22656 0.5976-1.2548 0.8502 0.49804 3.6951 5.5566 9.0157 0.6909 0.7268 1.2559 1.7481 1.2559 2.2695 0 0.5218 1.1184 0.7457 2.4844 0.498 1.3661-0.2477 2.7268-0.056 3.0254 0.4278 0.2987 0.4822-0.38168 0.7004-1.5137 0.4824l-2.0586-0.3965 2.1074 2.9609c1.1594 1.6283 2.5179 2.7065 3.0195 2.3965 0.5021-0.3101 0.69308 0.022 0.42578 0.7383-0.26719 0.7161 0.984 2.8758 2.7793 4.8008s4.0636 4.7532 5.041 6.2832c0.9775 1.53 2.2183 2.5092 2.7578 2.1758s0.87464-0.2366 0.74414 0.2168c-0.2964 1.03 2.0346 5.3157 3.9141 7.1953 0.776 0.7758 2.1242 2.4995 2.9961 3.8301 1.2307 1.8783 1.7955 2.1261 2.5254 1.1093 0.34134-0.4755 0.548-0.7065 0.625-0.6894h0.016c0.0481 0.073-0.0219 0.3947-0.20117 0.9628-0.29 0.9193 1.4632 4.1681 4.1562 7.7032 2.5615 3.3624 6.6812 9.0987 9.1562 12.748 2.475 3.6492 5.723 7.9966 7.2188 9.6621s2.991 3.8839 3.3223 4.9278 1.0901 1.5964 1.6855 1.2285c0.6012-0.3716 0.79741-0.2087 0.44141 0.3672-0.3525 0.5703 0.2532 2.1736 1.3457 3.5625s1.9863 2.7883 1.9863 3.1093c0 1.4185 6.8671 9.4056 7.5547 8.7871 0.42111-0.3788 0.47475-0.1775 0.11914 0.4454-0.35569 0.6229 0.18888 2.1979 1.209 3.5 2.359 3.0113 15.117 23.645 15.117 24.449 0 1.3994 3.8009 5.2906 4.5273 4.6347 0.16714-0.1508 0.27393-0.2053 0.31836-0.1757h8e-3c0.0552 0.063-0.035 0.326-0.27735 0.7461-0.9144 1.5851 1.2513 4.4342 2.6934 3.5429 0.5732-0.3542 0.74677-0.166 0.38477 0.4199-0.9326 1.5089 0.34732 4.3628 1.6074 3.584 0.5773-0.3568 0.75749-0.1754 0.40039 0.4024-0.6926 1.1206 0.56265 3.9391 3.9062 8.7734 1.1359 1.6423 3.5179 5.9073 5.293 9.4824 1.7752 3.5749 5.6947 10.775 8.7109 16 5.9275 10.269 18.435 35.401 28.367 57 3.4142 7.425 6.6244 14.285 7.1348 15.24 0.5104 0.955 0.92773 2.2021 0.92773 2.7715s1.8132 4.9234 4.0293 9.6757c2.2161 4.7522 4.8562 11.151 5.8652 14.225s2.7958 7.3844 3.9707 9.5762c1.1748 2.1919 2.1348 4.6166 2.1348 5.3906 0 0.7739 1.5387 5.0565 3.4199 9.5157 1.8813 4.4593 3.7349 9.6803 4.1172 11.605 0.3823 1.925 1.0293 3.95 1.4395 4.5s1.7528 4.375 2.9824 8.5c1.2296 4.125 2.5948 7.95 3.0332 8.5 0.43831 0.55 1.8154 5.05 3.0606 10 1.2452 4.9499 2.5686 9.2249 2.9414 9.5 0.3729 0.2749 1.4339 3.4249 2.3574 7 0.9235 3.5749 2.3355 8.7499 3.1387 11.5 0.8032 2.75 1.9827 7.025 2.6211 9.5 0.6385 2.475 1.3876 5.1749 1.6641 6 0.2766 0.8249 0.63433 2.1749 0.79493 3 0.1605 0.8249 1.4021 5.9999 2.7598 11.5 1.3577 5.5 3.2432 13.6 4.1895 18 0.94619 4.3999 2.1137 9.3499 2.5937 11 1.5973 5.4913 7.6509 37.863 8.8828 47.5 0.6679 5.225 1.8152 11.075 2.5508 13 0.7357 1.925 1.5889 7.325 1.8945 12 0.3055 4.675 0.97202 11.425 1.4824 15 7.7045 53.97 9.019 160.81 2.6445 215-0.8087 6.875-1.7498 15.2-2.0898 18.5s-0.81951 6.7217-1.0664 7.5996c-0.2468 0.8779-0.86294 5.6029-1.3691 10.5s-2.2989 16.732-3.9824 26.301c-1.6836 9.5689-3.0606 18.681-3.0606 20.25 0 1.5685-0.45 2.8495-1 2.8496-0.55 0-1 1.3177-1 2.9258 0 3.6868-1.4437 10.581-9.6504 46.074-1.79 7.7417-10.938 41.225-12.432 45.5-2.0296 5.8101-4.2283 14.028-4.3223 16.158-0.0526 1.1849-0.37691 1.9801-0.72071 1.7676-1.0256-0.6338-3.1555 8.3067-2.3223 9.7481 0.24227 0.4192 0.33246 0.6844 0.28125 0.7539h-4e-3 -2e-3c-0.0472 0.031-0.16411-0.026-0.34375-0.1894-0.85469-0.776-2.1413 2.1591-5.5898 12.758-1.0737 3.3-2.5728 7.35-3.332 9-0.7591 1.6499-2.5329 6.375-3.9414 10.5-4.5678 13.378-5.7627 16.47-6.5664 16.99-0.91999 0.5953-4.5285 11.921-4.3809 13.75 0.0551 0.681-0.29921 0.9929-0.78711 0.6914-0.4879-0.3016-0.88672 0.047-0.88672 0.7754 0 0.7281-0.83637 2.8916-1.8594 4.8086-1.0231 1.9167-2.1924 4.6093-2.5977 5.9844-2.1968 7.4517-18.126 40.882-34.613 72.639-3.7514 7.2255-6.5078 13.485-6.125 13.91 0.3829 0.4251 0.21219 0.4981-0.37891 0.1621-0.59379-0.3376-2.0555 1.2688-3.2656 3.5899-1.2046 2.3103-3.2463 5.9991-4.5391 8.1992-1.2928 2.1999-3.514 6.1191-4.9356 8.709-2.7849 5.0737-5.8188 9.9854-6.6641 10.791-0.28861 0.2749-1.182 1.8499-1.9863 3.5-0.8043 1.6499-2.2138 4.125-3.1328 5.5-0.9189 1.375-2.9159 4.75-4.4375 7.5-1.5217 2.75-3.0535 5.2249-3.4043 5.5-0.5458 0.4278-10.579 15.151-13.561 19.9-0.55 0.8759-2.2375 3.2338-3.75 5.2402-1.5125 2.0063-2.75 4.1074-2.75 4.6699s-0.37317 1.1742-0.83007 1.3575-3.7194 4.5213-7.25 9.6406c-11.462 16.619-12.803 18.502-13.617 19.102-1.562 1.1513-10.303 12.936-10.303 13.891 0 0.5332-1.16 1.7309-2.5781 2.6601-1.7276 1.1319-2.3702 2.2318-1.9473 3.334 0.3467 0.9053 0.31564 1.3294-0.0703 0.9434-0.9873-0.9873-5.4226 4.4068-4.6875 5.7011 0.3318 0.5843 0.26677 0.7596-0.14453 0.3907-0.6183-0.5547-9.6226 9.2483-15.572 16.953-1.548 2.0046-9.03 10.555-17.123 19.568-2.5426 2.8318-5.9053 6.6836-7.4727 8.5585-11.719 14.018-61.288 62.488-78.904 77.154-2.75 2.2895-6.8 5.9576-9 8.1504-2.2 2.1929-5.2527 4.6364-6.7832 5.4297-1.6934 0.8777-2.5115 1.9137-2.0898 2.6485 0.3812 0.6641 0.33523 0.8847-0.10157 0.4902-0.8435-0.7618-3.6971 1.232-9.7324 6.7988-2.0386 1.8803-4.0961 3.4179-4.5742 3.418-1.4408 0-5.2916 4.595-4.5078 5.3789 0.4007 0.4007 0.0396 0.4631-0.80078 0.1406-1.5889-0.6097-6.2381 2.6941-5.3926 3.8321 0.12422 0.1672 0.17555 0.2751 0.1582 0.3144h-2e-3c-2.8e-4 0 3.6e-4 0.01 0 0.01h-0.01c-0.0385 0.016-0.14362-0.027-0.30274-0.1446-0.6653-0.4912-4.4375 1.9766-7.8633 5.1465-1.1 1.0178-3.9077 3.2387-6.2383 4.9336s-3.9056 3.4485-3.5 3.8965c0.4056 0.4476 0.17218 0.4893-0.51953 0.092-1.449-0.8342-4.5005 1.7745-3.4453 2.9453 0.3863 0.4284 0.13702 0.4536-0.55469 0.057-1.417-0.8158-4.5342 1.7782-3.4453 2.8671 0.3863 0.3861 0.22472 0.5525-0.35938 0.3692-1.1872-0.3726-10.438 5.1735-10.438 6.2578 0 0.3807-1.0251 0.9494-2.2773 1.2637s-4.0647 2.1625-6.25 4.1074c-2.1853 1.9449-4.3299 3.5366-4.7656 3.5371-0.4357 3e-4 -1.3357 0.4429-2 0.9844-2.8564 2.3288-14.8 10.016-15.562 10.016-0.4594 0-1.649 0.9-2.6445 2s-2.4427 2-3.2149 2c-0.7721 0-1.1289 0.4446-0.7929 0.9883 0.3504 0.5668-0.051 0.736-0.9414 0.3945-0.8535-0.3275-1.5508-0.1774-1.5508 0.334s-2.0141 1.9362-4.4766 3.166c-2.4626 1.2299-4.7517 2.678-5.0859 3.2188s-2.3885 1.6957-4.5645 2.5664c-2.1761 0.8706-3.7319 1.8071-3.457 2.082 0.4863 0.4862-5.1157 3.8586-10.666 6.4199-1.5125 0.698-2.75 1.586-2.75 1.9727 0 0.3868-1.575 1.222-3.5 1.8574-1.925 0.6352-3.5 1.5164-3.5 1.957s-1.4625 1.3923-3.25 2.1153-3.475 1.5648-3.75 1.8711c-0.5822 0.6482-5.2445 3.1665-16.75 9.0488-4.5375 2.3199-8.25 4.6212-8.25 5.1133 0 0.492-0.6203 0.8944-1.3789 0.8945-1.3288 0-10.536 4.0825-13.621 6.0391-0.825 0.5233-6 3.0112-11.5 5.5293s-10.675 4.9985-11.5 5.5117c-0.825 0.5133-2.175 1.2216-3 1.5742-0.825 0.3525-3.388 1.4752-5.6953 2.4941-2.3074 1.019-4.6142 1.8515-5.127 1.8516-0.5128 0-1.493 0.675-2.1777 1.5-0.6847 0.8249-1.9218 1.5-2.7481 1.5-1.4291 0-7.3581 2.3771-19.029 7.627-2.9026 1.3055-6.191 2.373-7.3085 2.373-1.1174 0-1.8021 0.3723-1.5215 0.8262 0.2806 0.454-2.1683 1.627-5.4414 2.6074-3.2731 0.9805-5.9512 2.0726-5.9512 2.4258s-2.8125 1.509-6.25 2.5703c-3.4375 1.0614-6.7 2.1831-7.25 2.4922-2.0743 1.1658-8.0676 3.0475-9.75 3.0625-0.9625 0.01-1.75 0.3933-1.75 0.8554 0 0.4622-2.475 1.4345-5.5 2.1602-3.025 0.7256-5.5 1.7458-5.5 2.2676 0 0.5217-1.1629 0.6574-2.584 0.3008-1.4211-0.3567-2.3415-0.2552-2.0449 0.2246 0.5273 0.8533-11.406 5.2168-14.371 5.2558-0.825 0.011-3.3 0.8885-5.5 1.9512s-5.0359 1.9478-6.3008 1.9668c-1.2648 0.019-3.7398 0.7858-5.5 1.7051-1.7601 0.9193-4.0992 1.7459-5.1992 1.8379-4.1535 0.3476-10.022 1.8108-10.559 2.6328-0.3069 0.4698-3.2319 1.3476-6.5 1.9492-3.268 0.6017-6.4974 1.5527-7.1777 2.1133-0.6804 0.5606-2.4804 0.7301-4 0.3769-1.8838-0.4377-2.315-0.3429-1.3536 0.2969 1.0017 0.6666-0.2294 1.1421-4.25 1.6445-3.1131 0.389-5.6601 1.1051-5.6601 1.5918 0 0.4866-1.4625 0.9161-3.25 0.9551-2.7788 0.06-2.96 0.2035-1.25 0.9863 1.4718 0.6698 0.6796 0.8533-3 0.6797-3.7933-0.179-4.9307 0.094-4.7109 1.1328 0.228 1.077-0.6798 1.2249-4.25 0.6895-3.09-0.4634-4.5391-0.3231-4.5391 0.4394 0 0.6161-0.45 0.8419-1 0.502s-1-0.155-1 0.4102c0 0.5654-0.6545 0.7772-1.4531 0.4707-0.7987-0.3064-2.0222-0.2052-2.7207 0.2265-0.6986 0.4321-3.0212 0.6584-5.1602 0.5039-2.2404-0.1617-3.6433 0.1186-3.3086 0.6602 0.3301 0.5342-0.5933 0.7523-2.1387 0.5058-2.1299-0.3398-2.3934-0.2035-1.2187 0.6289 1.1383 0.8067 0.1737 1.0835-4 1.1485-4.2464 0.066-5.0442 0.3013-3.5 1.0332 1.4567 0.6904 0.7303 0.8152-2.6758 0.459-3.0542-0.3194-4.8115-0.085-5.0644 0.6738-0.2459 0.7375-2.3908 1.0677-5.875 0.9063-3.0511-0.1414-7.4648 0.4339-9.9375 1.2949-2.4465 0.8518-6.354 1.5544-8.6836 1.5644-4.3353 0.015-13.366 1.9821-14.264 3.1074-0.275 0.3447-3.65 0.6593-7.5 0.6973-9.4951 0.094-19.609 1.2233-19.051 2.127 0.2514 0.4067-2.031 0.5334-5.0703 0.2812-3.0393-0.252-6.5039 0.014-7.7012 0.5938-2.5697 1.2429-11.819 2.0405-39.678 3.4199-29.859 1.4783-98.604 2.4335-101.78 1.4141-1.496-0.4804-11.046-1.2188-21.221-1.6407-10.175-0.422-22.775-1.3346-28-2.0273s-14.225-1.2884-20-1.3223c-6.0144-0.036-9.2184-0.3471-7.5-0.7305 0.8869-0.1979 1.3429-0.3479 1.3183-0.4609-0.055-0.1798-1.3449-0.2723-4.0683-0.3281-3.4076-0.07-5.75-0.5616-5.75-1.207 0-0.7287-2.7404-0.9661-8.25-0.7188-5.8909 0.2644-8.536-1e-4 -9.25-0.9102-0.6091-0.7802-4.6403-1.537-10.311-1.9355-5.1204-0.3599-8.7988-0.9685-8.1757-1.3535 1.1568-0.715-5.9923-1.9923-11.152-1.9922-1.5732 0-2.8613-0.4144-2.8613-0.9199s-2.4368-0.8372-5.4141-0.7364c-2.9772 0.1008-5.1992-0.1597-4.9394-0.58 0.2597-0.4203-1.2429-0.7693-3.3379-0.7793-2.9696-0.012-3.478-0.2495-2.3086-1.0801 1.1144-0.7916 0.4076-0.9149-2.75-0.4746-2.7947 0.3897-4.25 0.2154-4.25-0.5117 0-0.7409-1.7319-0.9148-5.25-0.5254-2.8875 0.3193-4.6229 0.3023-3.8574-0.037 2.6896-1.1938-5.0186-3.4518-9.834-2.8809-2.9044 0.3444-3.8501 0.234-2.6055-0.3027 2.4955-1.0762-3.4205-2.505-6.1055-1.4746-0.978 0.3753-1.4235 0.2337-1.0703-0.3379 0.35-0.5664-3.7708-1.9813-9.7773-3.3594-5.7101-1.3101-10.135-2.7837-9.832-3.2734 0.3026-0.4897-0.286-0.7717-1.3086-0.627-3.211 0.4547-10.785-1.2518-12.576-2.834-0.9444-0.834-2.6114-1.2835-3.7031-0.998-1.0917 0.2854-2.1174 0.1991-2.2813-0.1934-0.3129-0.7493-10.993-3.8139-16.549-4.748-1.7875-0.3005-3.25-0.9738-3.25-1.4961s-0.4998-0.6396-1.1113-0.2617c-0.6115 0.378-1.399 0.285-1.75-0.2071s-2.8785-1.476-5.6153-2.1855c-2.7367-0.7095-5.2117-1.6468-5.5-2.0821-0.2882-0.4354-2.398-1.0837-4.6894-1.4414-2.2914-0.3576-5.4414-1.2768-7-2.0429-3.3665-1.6548-11.257-4.4133-16.834-5.8848-2.2-0.5805-4.225-1.3818-4.5-1.7812-0.7614-1.1061-11.125-3.9843-12.123-3.3672-0.4821 0.298-0.8769 0.065-0.8769-0.5176 0-0.5825-0.675-1.0586-1.5-1.0586s-1.5-0.4501-1.5-1c0-0.5501-0.7572-1-1.6836-1-0.9263 0-3.5138-0.8246-5.75-1.832-10.342-4.6591-19.906-8.0822-20.936-7.4942-0.6224 0.3554-0.7859 0.2658-0.3633-0.1992 0.9095-1.0006-7.8179-5.335-10.91-5.418-1.1787-0.032-2.3775-0.6692-2.6641-1.416-0.2863-0.7468-1.9368-1.6404-3.666-1.9863-1.7292-0.3458-3.8592-1.3437-4.7343-2.2188s-2.4065-1.3781-3.4043-1.1171c-0.9978 0.2609-2.3188-0.1324-2.9336-0.8731-1.281-1.5436-9-5.4454-10.772-5.4453-0.6514 0-1.1836-0.4501-1.1836-1 0-0.5501-0.4232-1-0.9414-1-0.5183 0-6.072-2.4751-12.34-5.5-6.2678-3.025-11.918-5.5-12.557-5.5-0.639 0-1.1699-0.3375-1.1699-0.75 0-0.4126-1.0168-1.2437-2.25-1.8457-9.7772-4.7729-28.997-15.517-30.568-17.088-0.7783-0.7783-2.7112-1.6753-4.2949-1.9922-1.5837-0.3167-2.8789-0.9797-2.8789-1.4746s-1.0125-1.2891-2.25-1.7656-5.5806-2.9269-9.6504-5.4434c-4.0698-2.5164-7.8948-4.292-8.5-3.9472-0.6052 0.3447-0.7767 0.2701-0.3828-0.1661 0.8646-0.9575-2.5159-3.6782-6.9668-5.6074-1.7875-0.7748-3.25-1.6972-3.25-2.0488 0-0.6994-4.0011-2.1685-5.3242-1.9551-0.4534 0.073-0.5403-0.3274-0.1934-0.8887s-0.6323-1.5753-2.1758-2.2539c-1.5435-0.6787-3.0316-1.4677-3.3066-1.7539-1.7636-1.8354-16.57-11.354-17.662-11.354-0.7354 0-1.1204-0.2175-0.8555-0.4824 0.4957-0.4957-9.3446-8.1837-10.475-8.1836-0.3471 0-1.5104-0.7875-2.5859-1.75s-4.6207-3.5501-7.8789-5.75c-3.2582-2.2-6.7054-4.8364-7.6582-5.8574-1.0459-1.1207-2.2577-1.5528-3.0586-1.0899-0.4503 0.2601-0.7301 0.3573-0.7871 0.293-0.027-0.043 0.024-0.1453 0.166-0.3027 1.3037-1.4466-8.2453-8.1669-9.6328-6.7793-0.4034 0.4052-0.5877 0.061-0.4043-0.7637 0.1845-0.8304-0.2572-1.3767-0.9903-1.2246-0.7282 0.1511-1.0874-0.1101-0.7968-0.5801 0.2903-0.47-1.8137-2.6159-4.6758-4.7695s-5.7035-4.3674-6.3145-4.9199c-0.6111-0.5526-2.6618-2.2249-4.5586-3.7149-3.1607-2.4828-6.5113-5.2838-11.08-9.2656-0.9626-0.8388-2.0158-1.5255-2.3398-1.5254-0.5554 0-3.1919-2.3539-12.66-11.303-2.2138-2.0923-4.6325-3.5721-5.375-3.2871-0.7427 0.2849-1.2441 0.1376-1.1132-0.3282 0.4107-1.4612-12.257-13.202-13.449-12.465-0.63 0.3894-0.8449 0.2458-0.4902-0.3281 0.7451-1.2056-2.6779-4.5994-3.6543-3.6231-0.3678 0.3679-0.668 0.094-0.668-0.6055 0-1.4183-5.0256-5.7021-6.2304-5.3105-0.4234 0.1374-0.6571-0.1369-0.5196-0.6113 0.1374-0.4745-7.4001-8.5438-16.75-17.932-9.35-9.3878-20.375-20.764-24.5-25.279s-9.975-10.734-13-13.818c-3.0251-3.0847-7.3001-7.8323-9.5-10.551-2.2-2.7185-5.1876-6.1699-6.6386-7.6699-1.4509-1.5-3.9252-4.4144-5.4981-6.4766-1.573-2.0622-4.2101-5.2097-5.8613-6.9941-1.6511-1.7844-4.5771-5.4133-6.502-8.0625-3.8126-5.2469-6.1549-8.1341-10-12.326-1.375-1.4991-4.0551-5.0114-5.957-7.8066-1.9019-2.7953-3.8262-4.8558-4.2754-4.5782s-0.7015 0.1351-0.5605-0.3183c0.6182-1.9891-10.486-16.665-11.748-15.527-0.4286 0.3863-0.4923 0.1986-0.1406-0.4179 0.3518-0.6165-0.2406-2.1367-1.3164-3.377-1.0757-1.2404-3.413-4.5609-5.1953-7.3789-1.7823-2.8182-3.4804-5.35-3.7735-5.625-1.426-1.3383-5.0332-7.0419-5.0332-7.959 0-0.5722-0.45-1.0411-1-1.041-0.5501 0-1-0.4463-1-0.9922 0-0.5458-0.9568-2.0936-2.1269-3.4394-2.2429-2.5795-4.1158-5.5865-5.8047-9.3184-0.5599-1.2376-1.4794-2.2501-2.043-2.25-0.5637 0-1.0255-0.4911-1.0254-1.0918 0-1.7149-3.6539-5.9202-4.4511-5.123-0.3943 0.3938-0.6093 0.2648-0.4785-0.2852 0.3774-1.5872-3.1125-8.8054-4.9239-10.184-0.9061-0.6891-1.334-1.2662-0.9531-1.2832 0.6577-0.03-4.9013-9.1508-7.168-11.762-0.5875-0.6767-1.0742-1.4602-1.0742-1.7403-0.021-1.7301-1.3225-3.4182-2.2109-2.8691-0.6032 0.3728-0.7531 0.1701-0.3535-0.4766 0.7763-1.256-1.9506-7.1855-3.3047-7.1855-0.4762 0-1.1513-1.1435-1.502-2.541-0.3858-1.537-1.0831-2.2645-1.7637-1.8438-0.6779 0.419-0.8485 0.2454-0.4277-0.4355 1.2249-1.982-5.3595-12.796-6.9297-11.381-0.429 0.3863-0.4658 0.1534-0.08-0.5176 0.7665-1.3346-3.6958-10.526-4.7364-9.7558-0.1821 0.1348-0.2986 0.1872-0.3359 0.1621l-0.01-0.01c-0.019-0.033 0.017-0.125 0.1172-0.2656 0.586-0.8199-4.891-12.174-6.9922-14.496-0.9552-1.0554-1.4415-1.9199-1.082-1.9199 0.01 0 0.011 1e-4 0.016 0l0.01-0.01c0.1943-0.2873-1.7038-4.5046-4.3398-9.6192-2.7309-5.2989-5.4946-11.261-6.1426-13.25-0.648-1.9887-1.4879-3.8422-1.8672-4.1172-1.0835-0.7857-11.022-21.753-11.022-23.254 0-0.7397-0.4181-1.7723-0.9296-2.2949-0.5115-0.5225-1.5832-2.7512-2.3829-4.9512-2.0992-5.7746-9.7019-24.721-10.662-26.57-0.9312-1.793-4.1291-9.965-9.5547-24.43-2.063-5.5-4.3139-11.35-5.0039-13-0.69-1.65-1.5682-4.4919-1.9531-6.3164-0.3848-1.8246-1.3317-4.5245-2.1015-6s-1.4063-3.2451-1.4063-3.9336c0-0.6887-1.3764-5.1887-3.0547-10-1.6782-4.8115-4.4312-13.925-6.1172-20.25-5.1061-19.155-5.4122-20.084-6.2988-19.277-0.4707 0.4284-0.5436 0.2375-0.1641-0.4238 0.5913-1.0307-2.4621-15.182-5.3496-24.799-0.4954-1.65-1.2008-4.6876-1.5703-6.75-0.3694-2.0626-1.0999-3.75-1.6211-3.75-0.5213 0-0.7061-0.3875-0.4121-0.8632 0.5037-0.8149-1.0629-10.875-2.2012-14.137-0.2879-0.825-0.7064-2.625-0.9277-4-0.2214-1.375-1.0814-5.4251-1.9121-9-0.8307-3.575-2.1311-10.325-2.8926-15-0.7614-4.6751-2.0449-12.325-2.8496-17-0.805-4.6751-1.9771-12.1-2.6035-16.5-0.6265-4.4-1.5542-10.925-2.0645-14.5-2.54-17.791-4.4075-37.959-7.082-76.5-1.0766-15.512-0.7072-92.304 0.5371-111.5 0.303-4.6751 1.0151-14.947 1.5781-22.828 0.5629-7.8807 0.7212-14.812 0.3555-15.404-0.3947-0.6386-0.195-0.7848 0.4902-0.3613 0.808 0.4993 1.1543-0.6514 1.1543-3.832 0-2.4996 0.4361-6.4632 0.9688-8.8086s1.4528-8.9907 2.0449-14.766c0.592-5.775 1.546-13.425 2.1211-17 0.5751-3.575 1.4369-9.425 1.9121-13 0.9919-7.4634 1.9309-12.573 5.5235-30 1.4172-6.875 2.675-13.626 2.7929-15.002 0.1179-1.3764 0.4882-2.9514 0.8262-3.5 0.3381-0.5487 0.9418-3.2482 1.3398-5.9981 0.3979-2.75 1.0896-5.4643 1.5391-6.0332 0.4496-0.5688 1.3337-3.9438 1.9648-7.5 0.631-3.5561 1.5941-8.4919 2.1387-10.967 0.5446-2.4751 1.0652-5.6943 1.1582-7.1543 0.093-1.4599 0.5074-2.4444 0.9199-2.1894 0.4125 0.2549 0.75-0.6883 0.75-2.0957 0-1.4075 0.3473-2.5606 0.7715-2.5606 0.6947 0 3.077-9.4733 3.6465-14.5 0.1246-1.1001 0.7384-2.9446 1.3613-4.0996 1.1106-2.0591 4.1528-11.991 6.709-21.9 1.6101-6.2413 4.2191-14.058 6.0176-18.021 0.7545-1.6628 1.5902-4.1378 1.8574-5.5s1.9268-6.3036 3.6836-10.979c5.7439-15.285 6.0542-16.291 5.5117-17.705-0.2951-0.7693-0.089-1.1231 0.4551-0.7871 0.5437 0.336 0.9863-0.3149 0.9863-1.4473 0-1.1325 0.4156-2.0606 0.9219-2.0606s1.2311-1.4625 1.6133-3.25c0.3822-1.7876 1.0545-3.7001 1.4941-4.25 0.4395-0.5501 1.9122-3.925 3.2715-7.5 2.6094-6.8624 10.189-24.751 14.404-34 1.3785-3.025 3.2113-7.3 4.0742-9.5 0.8628-2.2 2.3918-5.073 3.3965-6.3847s1.8242-3.1961 1.8242-4.1895 0.49-2.109 1.0879-2.4785c0.5933-0.3695 0.8634-1.5218 0.5918-2.5605s-0.085-1.6364 0.4141-1.3282c0.4987 0.3083 0.9062-0.1044 0.9062-0.916s0.3581-1.6253 0.7969-1.8086c0.4389-0.1834 2.76-4.3841 5.1543-9.334 2.3942-4.95 4.7324-9.1487 5.1992-9.332 0.4669-0.1833 0.8496-1.6458 0.8496-3.25 0-1.6576 0.5396-2.9236 1.25-2.9336 0.6875-0.01 2.361-2.5969 3.7188-5.75 1.3577-3.1531 3.4952-7.2588 4.75-9.123 1.2547-1.8643 2.2812-3.9461 2.2812-4.627s0.675-1.7998 1.5-2.4844 1.5-2.0884 1.5-3.1211 0.3484-1.8789 0.7715-1.8789c0.423 0 2.2972-2.8126 4.166-6.25 1.8689-3.4376 4.5724-8.05 6.0098-10.25 1.4376-2.2 3.2402-5.2375 4.0039-6.75 0.7636-1.5125 1.7597-2.75 2.2168-2.75 0.457 0 0.832-0.5851 0.832-1.3007 0-0.7157 1.8725-4.2032 4.1602-7.75 2.2877-3.5469 6.1687-9.5994 8.625-13.449 6.46-10.126 11.633-17.925 12.27-18.5 0.304-0.275 1.6209-2.3 2.9258-4.5s5.4418-8.1447 9.1953-13.211c3.7536-5.0663 6.8242-9.6406 6.8242-10.166s0.3695-1.1058 0.8204-1.2891c1.7927-0.729 12.039-15.256 11.469-16.26-0.3355-0.5903-0.2649-0.7636 0.1563-0.3848 0.4213 0.3789 2.5435-1.421 4.7168-4 2.1733-2.5789 4.8277-5.6526 5.8964-6.8301 1.0686-1.1775 1.9414-2.64 1.9414-3.25s0.4728-1.1094 1.0508-1.1094c0.5781 0 1.7094-1.5751 2.5137-3.5 0.8044-1.9251 1.8556-3.5 2.3359-3.5 0.4802 0 3.5134-3.2626 6.7383-7.25 3.2249-3.9876 6.6488-7.8379 7.6113-8.5566 0.9625-0.7186 1.75-1.9248 1.75-2.6816 0-0.7567 0.9245-1.6687 2.0547-2.0274 1.1303-0.3588 1.905-1.1056 1.7207-1.6582-0.1842-0.5527 2.6038-4.1794 6.1953-8.0586 3.5914-3.8792 6.4052-7.4721 6.254-7.9844-0.1511-0.5119 0.09-0.7049 0.5351-0.4296 0.4454 0.2754 3.7192-2.7288 7.2734-6.6758 9.7185-10.793 52.549-53.438 59.955-59.695 3.5679-3.0147 9.1929-8.0046 12.5-11.088 9.7019-9.0455 12.517-11.461 22.012-18.891 4.95-3.8732 9.675-7.6193 10.5-8.3242 3.0775-2.6292 21.419-17.335 26.859-21.535 3.1031-2.3958 5.794-4.7608 5.9785-5.2559 0.1845-0.4953 0.747-0.6468 1.25-0.3359s0.9121 0.1196 0.9121-0.4258c0-0.5453 0.9057-1.2792 2.0137-1.6309 1.108-0.3516 1.7137-1.1272 1.3457-1.7226-0.388-0.6278-0.2037-0.7949 0.4375-0.3985 0.6081 0.3757 3.7149-1.2877 6.9043-3.6972 3.1895-2.4094 13.786-9.6334 23.549-16.053 9.7625-6.4197 17.75-12.186 17.75-12.814 0-0.6285 0.2923-0.8503 0.6504-0.4922 0.3581 0.3582 1.2916-0.13 2.0743-1.084 0.4928-0.6037 0.8188-0.912 0.9023-0.8828 0-1e-4 0 0 0.016 0-1e-4 0 0-3e-4 0 0.01 0.02 0.043-0.018 0.1716-0.1269 0.3867-0.6058 1.1952 6.4472-2.4259 7.4863-3.8438 0.275-0.3753 2.075-1.3546 4-2.1757 1.925-0.8212 5.525-2.9936 8-4.8282 2.475-1.8345 7.425-4.8701 11-6.7461 3.575-1.8759 7.5731-4.255 8.8848-5.2851 1.3115-1.0302 2.9093-1.8731 3.5507-1.8731 0.6415 0 3.9366-1.8 7.3223-4s6.6686-4 7.2949-4c0.6262 0 2.3331-0.8181 3.793-1.8183 1.4599-1.0003 5.6918-3.3016 9.4043-5.1153 3.7125-1.8136 6.75-3.6955 6.75-4.1816s0.6821-0.8848 1.5156-0.8848c0.8336 0 5.0475-1.8 9.3653-4 4.3176-2.2 8.1241-4 8.4589-4 0.3349 0 7.2343-3.1863 15.332-7.082s17.672-8.1792 21.275-9.5176c3.6036-1.3384 10.153-3.9656 14.553-5.8398 16.262-6.9268 25.239-10.554 26.107-10.564 0.8604-0.01 19.806-7.1062 23.893-8.9551 1.1-0.4976 6.725-2.3035 12.5-4.0136 5.775-1.71 11.4-3.4938 12.5-3.9629 1.1-0.469 5.825-1.9758 10.5-3.3496 4.675-1.3737 12.325-3.6332 17-5.0215 4.675-1.3882 12.658-3.5123 17.74-4.7188s8.998-2.5889 8.6992-3.0722c-0.2988-0.4834 0.042-0.6549 0.7579-0.3809 0.716 0.274 3.7777-0.2121 6.8027-1.0801 3.025-0.8679 7.525-1.9402 10-2.3847 2.475-0.4446 12.6-2.4895 22.5-4.543 20.466-4.2452 33.517-6.4602 38.25-6.4922 1.7875-0.012 3.25-0.4286 3.25-0.9277s2.3625-1.1094 5.25-1.3555c2.8875-0.246 14.25-1.6728 25.25-3.1719 11-1.499 24.275-3.1015 29.5-3.5586 5.225-0.4572 13.55-1.2985 18.5-1.871 21.008-2.4299 55.722-3.3313 90.701-2.877zm219.31 192.91c-0.4513-0.012-0.9039 0.4968-1.2929 1.6641-0.3006 0.9021-55.014 1.1797-232.31 1.1797h-231.92v5.5c0 3.3544 0.4323 5.5 1.1074 5.5 0.6084 0 0.8479 0.675 0.5313 1.5-0.4451 1.16 0.2298 1.5 2.9785 1.5 11.689 0 37.264 9.7293 50.018 19.027 6.0844 4.4357 20.365 17.454 20.365 18.564 0 0.2485 2.1922 3.2539 4.8711 6.6796 2.679 3.4257 5.8898 8.2536 7.1348 10.729 1.2445 2.475 2.5524 4.725 2.9062 5 3.9358 3.0592 13.348 37.551 14.002 51.308 0.047 0.9949 0.4234 1.6007 0.8359 1.3458 0.4125-0.255 0.8211 2.0815 0.9101 5.1914 0.089 3.11 0.5725 11.279 1.0743 18.154 1.11 15.208 0.675 16.533-6.6465 20.242-2.9763 1.5076-6.1612 3.4201-7.0781 4.25-0.917 0.8298-2.0195 1.5079-2.4493 1.5079-0.4299 0-3.7729 2.1763-7.4296 4.8359-3.6569 2.6597-7.6304 5.3619-8.8301 6.0039-1.805 0.966-9.3059 7.1289-20.801 17.092-3.6272 3.1437-19.103 20.268-24.01 26.568-8.8158 11.318-12.336 16.514-14.904 22-0.7725 1.65-2.3938 4.2591-3.6035 5.7968s-2.2638 3.8554-2.3418 5.1524-0.4781 2.1511-0.8906 1.8965c-0.4125-0.2547-0.75 0.2052-0.75 1.0234s-0.6488 2.1371-1.4414 2.9297c-1.7855 1.7855-7.8472 16.504-11.203 27.201-1.3803 4.4-2.9064 8.9-3.3907 10-1.0002 2.2716-3.4985 14.378-5.2617 25.5-1.6106 10.16-1.5777 50.114 0.047 56 0.6828 2.475 1.465 5.625 1.7363 7s0.7601 3.85 1.0879 5.5c0.8089 4.0721 6.5155 21.756 7.4219 23 0.4006 0.55 1.0125 2.1914 1.3594 3.6464 1.0949 4.5926 7.4164 17.25 12.117 24.26 2.4896 3.7126 4.5274 7.0959 4.5274 7.5176 0 1.3934 3.6468 4.095 4.4922 3.3281 0.456-0.4137 0.4929-0.1693 0.082 0.543-1.4265 2.4724 19.433 25.155 35.426 38.522 6.6791 5.5821 31.212 21.699 41.428 27.217 4.9104 2.6523 9.7467 5.6431 10.748 6.6445 2.7657 2.7658 2.5256 306.04-0.2696 340.32-0.9865 12.1-1.8186 22.828-1.8496 23.84-0.051 1.6797-0.3158 1.6364-3.0468-0.5-1.6444-1.2864-6.0319-4.5435-9.75-7.2383-7.9469-5.7599-17.986-16.803-29.188-32.102-4.4296-6.05-9.3277-12.575-10.885-14.5-14.159-17.504-35.513-57.509-47.508-89-1.3617-3.575-4.0972-10.566-6.0781-15.537s-3.6016-9.5893-3.6016-10.264c0-0.6742-0.4339-2.0079-0.9649-2.9629-1.0227-1.8392-5.5174-16.015-6.416-20.236-1.1464-5.3848-10.726-9.8741-13.049-6.1153-0.33 0.5339-1.0136 0.9783-1.6172 1.0781-2.7301 1.1077-3.1422 13.625-3.2969 122.54l-0.1562 110 5.7246 0.2988c5.6823 0.2969 9.7754-0.9193 9.7754-2.9043 0-0.569 1.4209-3.1408 3.1582-5.7149 14.566-21.582 37.786-24.537 76.342-9.7148 8.7682 3.3708 34.488 12.471 36.5 12.914 0.825 0.1815 1.402 1.1817 1.2832 2.2246-3.0614 26.873-8.7435 47.624-18.701 68.297-5.3204 11.046-6.5894 13.173-9.6269 16.143-1.6258 1.5893-2.9551 3.1797-2.9551 3.5332 0 2.8585-18.798 17.424-22.486 17.424-0.8325 0-1.5137 0.4172-1.5137 0.9277 0 0.5106-2.5875 1.4447-5.75 2.0742-3.1625 0.6294-7.3817 1.6144-9.375 2.1895-11.561 3.336-32.154-6.727-40.473-19.777-1.0214-1.6026-2.3162-3.2444-2.8789-3.6484-0.5627-0.4041-0.6752-0.74-0.25-0.75 0.4251-0.01 0.122-1.0281-0.6738-2.2656-2.6575-4.1326-8.7803-20.034-13.754-35.723-14.582-45.998-21.687-57.464-39.273-63.371-5.3142-1.785-22.438-2.3371-24.123-0.7773-0.5225 0.4836-2.6548 1.4252-4.7402 2.0918-14.887 4.7592-26.119 26.96-26.068 51.529 0.1013 48.916 42.539 81.522 113.86 87.48 17.177 1.4351 50.836-1.3517 65.5-5.4238 3.025-0.84 9.2125-2.4889 13.75-3.6641 4.5375-1.1751 8.25-2.5312 8.25-3.0136 0-0.4825 0.7115-0.8789 1.5801-0.8789 4.6407 0 29.682-11.698 45.123-21.08 29.442-17.889 49.194-38.824 64.15-67.988l3.2988-6.4316 28.674 0.3144c15.771 0.1725 33.303-0.068 38.961-0.5351 12.003-0.991 10.833-1.5167 15.002 6.7207 3.5777 7.0692 9.8056 17.317 12.459 20.5 0.9169 1.1 2.9931 3.8 4.6133 6 10.637 14.443 39.23 39.5 45.074 39.5 0.5429 0 1.8242 0.9013 2.8496 2.0019 2.7186 2.918 29.461 16.195 38.215 18.973 4.125 1.3091 8.4 2.9343 9.5 3.6113 1.1 0.6771 4.7 1.7736 8 2.4355 3.3 0.662 6.9 1.6856 8 2.2754s3.8 1.405 6 1.8125 5.8307 1.2097 8.0683 1.7813c42.569 10.872 114.98-2.0015 139.93-24.877 1.65-1.5125 3.7318-3.1459 4.6269-3.6308 4.4509-2.4112 17.826-21.105 18.146-25.363 0.084-1.1106 0.5065-2.0195 0.9395-2.0195s0.7871-0.6909 0.7871-1.5352c0-0.8444 0.6354-2.5319 1.4121-3.75 9.785-15.347 2.3707-55.514-12.592-68.215-6.7906-5.7639-7.6247-6.2974-10.961-7.0215-1.8477-0.401-3.6174-1.1312-3.9317-1.6231-3.4016-5.3246-27.182 0.565-37.947 9.3985-5.3673 4.4042-13.65 19.842-18.387 34.271-1.4402 4.3866-3.0932 9.3247-3.6738 10.975s-2.6546 8.363-4.6074 14.918c-7.3459 24.658-21.199 49.582-27.561 49.582-0.4578 0-2.0527 0.9011-3.5429 2.0019-14.912 11.016-46.207 3.3371-62.863-15.424-16.6-18.697-33.346-66.773-33.346-95.73 0-0.3919 1.0125-1.029 2.25-1.416 3.2809-1.0261 23.103-10.412 23.723-11.232 0.2898-0.3839 2.5524-1.768 5.0274-3.0742 6.2017-3.2729 29.776-19.004 32.926-21.971 1.416-1.334 5.0492-4.5284 8.0742-7.0997 13.482-11.46 31.715-32.304 39.412-45.055 1.4941-2.475 4.1002-6.75 5.791-9.5 3.9417-6.4111 12.187-22.889 13.887-27.75 0.7212-2.0625 1.6719-3.75 2.1114-3.75s0.7988-0.8476 0.7988-1.8848c0-1.0371 0.6725-3.1746 1.4941-4.75 0.8217-1.5753 1.5-3.6247 1.5-4.5547 0-0.9301 0.3832-1.925 0.8457-2.2109 0.4626-0.2858 1.6114-3.5765 2.5528-7.3106 0.9415-3.7341 2.1493-8.364 2.6836-10.289 6.2779-22.622 7.5144-80.488 1.9765-92.5-0.5071-1.1-1.3976-4.925-1.9785-8.5-3.8498-23.69-23.553-61.794-43.953-85-22.355-25.43-50.889-47.457-87.121-67.256-9.075-4.959-16.999-9.4058-17.607-9.8828-1.7077-1.338-1.3515-290.45 0.3574-290.11 0.6875 0.1375 1.25-0.176 1.25-0.6973 0-0.8668 11.455 10.973 15.012 15.516 14.796 18.897 20.84 27.765 27.553 40.432 1.6031 3.025 4.0452 7.1177 5.4258 9.0937 3.1698 4.5367 9.9677 18.979 13.842 29.406 1.6348 4.4 4.2014 11.15 5.7031 15 2.9755 7.6284 9.8065 26.471 12.055 33.25 3.6556 11.023 4.592 14.027 5.5 17.631 1.7949 7.1245 2.0414 7.2986 10.48 7.459l7.666 0.1465-0.623-30.742c-1.4567-72.018-1.8995-92.053-2.1524-97.244-0.1473-3.025-0.5518-22.375-0.8984-43-0.3465-20.625-0.8797-41.212-1.1856-45.75l-0.5566-8.25-6.1602 0.016c-7.8393 0.019-7.9915 0.1362-11.514 8.791-3.2901 8.0847-7.1743 13.75-10.053 14.664-1.0496 0.3331-2.1467 1.2265-2.4375 1.9843-1.2386 3.2279-29.488 4.7947-31.588 1.752-0.3124-0.4528-3.2683-1.4359-6.5683-2.1836s-6.45-1.6901-7-2.0938c-0.55-0.4036-5.6174-2.1638-11.26-3.9121-15.002-4.6481-14.101-2.1635-11.228-31.018 1.0661-10.707 1.1482-11.413 2.4316-21 2.1459-16.023 8.3207-37.555 12.904-44.996 1.1841-1.9224 2.8707-5.0724 3.7481-7 4.8279-10.607 26.502-33.22 36.904-38.504 1.925-0.9778 3.725-2.0815 4-2.4512 0.4484-0.6026 3.4151-1.8576 19-8.041 4.5146-1.7912 13.597-3.8227 22-4.92l4.5-0.5878 0.293-7.2637c0.204-5.0391-1.0257-9.0473-2.2735-9.0801zm-493.57 704.81c0.023-0.01 0.01-1.0334 0.029-1.041-0.9051 0.6448-1.0187 1.0532-0.291 1.0625 0.085 0 0.1718-0.01 0.2617-0.022zm0.029-1.041c3e-4 0-3e-4 0 0-0.01zm261.88-625.26c1.4864-0.076 2.9119 2.1116 4.1758 6.8399 5.076 18.99 8.1127 37.392 8.3789 50.783l0.084 4.2168-11.84 0.5c-14.416 0.6089-13.866 1.1321-12.67-12.074 2.8157-31.078 7.592-50.048 11.871-50.266zm0.4356 80.166c6.0563 0.084 11.959 0.8002 13.123 2.086 1.6234 1.7933 1.7239 10.849 1.6699 147.25-0.064 161.94 0.5461 148.64-6.5898 143.86-1.65-1.1046-3.7026-2.0136-4.5606-2.0136s-4.7565-1.5828-8.664-3.5078c-3.9074-1.925-7.7708-3.5-8.584-3.5-2.658 0-2.6852-1.7021-2.6582-142.04l0.027-138.89 2.1914-1.5352c1.7776-1.245 7.9887-1.7927 14.045-1.709zm-128.31 63.043c1.9788-0.025 1.9711 14.216 2.0019 68.607 0.025 44.173-0.317 69.61-0.9394 69.994-1.1316 0.6994-8.6697-10.182-7.7149-11.137 0.3498-0.3498-0.012-1.1299-0.8047-1.7343-2.043-1.557-9.0523-19.257-11.674-29.478-4.4207-17.238-2.4259-52.626 3.6699-65.121 0.6708-1.375 2.6969-6.325 4.5039-11s3.5908-8.725 3.9629-9c0.3722-0.275 2.1584-3.3023 3.9707-6.7286 1.3315-2.5173 2.3077-4.3932 3.0235-4.4023zm113.22 369.6c3.2758-0.1125 30.094 13.942 30.402 16.047 0.3563 2.4284 0.7032 35.609 0.3867 36.984-0.127 0.55-0.1763 1.45-0.1133 2s0.3305 45.325 0.5937 99.5c0.4775 98.294 0.8926 112.63 3.8125 131.5 0.8509 5.5 2.2701 14.725 3.1543 20.5s2.497 13.768 3.584 17.762 1.9766 7.8999 1.9766 8.6797c0 1.8092-7.1412 3.7661-21.861 5.9941-21.293 3.2229-39.975 3.0937-38.281-0.2656 11.488-22.784 14.952-73.93 15.059-222.36 0.052-72.797 0.4404-115.91 1.0449-116.28 0.055-0.034 0.1365-0.053 0.2422-0.057zm141.74 110.76c0.6189-0.019 1.4853 1.7235 2.502 5.2207 0.8712 2.9971 2.0296 5.7231 2.5723 6.0586 0.5428 0.3354 0.9863 1.6189 0.9863 2.8515 0 1.2325 0.3933 2.6689 0.875 3.1914 3.2205 3.4932 9.5945 32.192 10.982 49.449 0.7035 8.7466 0.7979 27.5 0.1387 27.5-0.1039 0-0.7627 2.925-1.4649 6.5-0.7021 3.575-1.8068 9.2-2.455 12.5-0.6483 3.3-2.5571 10.05-4.2422 15-1.6852 4.95-4.5281 11.904-6.3164 15.455l-3.25 6.4551-0.5176-3.9551c-0.5872-4.5015-1.2194-112.81-0.8242-141.2 0.046-3.3312 0.4139-5.0034 1.0136-5.0215zm-388.02 0.832c-0.1367-6e-4 -0.4433 0.075-0.92 0.2012-0.014 0 0 0.5669-0.016 0.6543h0.01c0.6979-0.4936 1.0308-0.749 0.998-0.8282 1e-4 0 0 6e-4 0-0.01-0.013-0.01-0.037-0.014-0.068-0.014zm297.16 577.19c-0.061 0.035-0.1248 0.063-0.1875 0.084 0.059 0.4265 0.1215 0.852 0.1875 1.2773 3e-4 -0.4524 0-0.9055 0-1.3613zm-0.5059 38.822c0.027 0.356 0.055 0.5565 0.082 0.5918 0.024-0.033 0.048-0.2027 0.07-0.4942-0.052-0.028-0.104-0.06-0.1524-0.098z" style="fill:#f4b01c"/>
   </g>
  </g>
 </g>
</svg>
